<svg width="304" height="245" viewBox="0 0 304 245" fill="none" xmlns="http://www.w3.org/2000/svg">
<path d="M64.0185 187.383C64.2368 187.376 64.5411 187.323 64.7395 187.382C74.6936 189.999 84.9062 190.308 95.1519 190.265C99.9143 190.244 104.65 190.071 109.386 189.897C109.757 189.864 110.127 189.83 110.577 189.531C109.763 189.36 108.97 189.122 108.156 188.951C90.9925 184.899 74.7489 178.737 59.9479 168.958C59.2336 168.455 58.3936 168.131 57.5338 167.874C47.904 164.414 38.6646 160.131 30.4574 153.843C26.0727 150.434 22.1975 146.527 19.2154 141.803C13.6744 132.626 12.8429 123.123 16.6747 113.208C19.0042 107.109 22.6697 101.844 26.9171 97.0414C29.8546 93.7271 33.1293 90.7306 36.5628 87.9262C37.1383 87.4478 37.7999 86.9228 38.1968 86.3186C44.4561 76.4792 52.8116 68.7854 62.4964 62.4293C73.7887 55.0359 86.1322 49.9091 99.0442 46.2539C119.021 40.664 139.347 38.7213 159.997 39.5506C172.095 40.0619 184.113 41.5615 195.879 44.1427C212.11 47.6983 227.673 53.006 242.289 60.9947C253.307 67.0392 263.38 74.3189 271.811 83.7103C277.121 89.565 281.446 96.0645 284.421 103.462C287.587 111.422 288.796 119.665 287.392 128.209C286.65 132.615 285.247 136.822 283.07 140.725C280.291 145.678 277.181 150.531 273.331 154.729C267.681 160.846 260.96 165.487 253.644 169.226C244.111 174.109 234.05 177.388 223.652 179.627C208.782 182.841 193.641 185.034 178.514 186.942C161.951 189.071 145.348 190.609 128.726 191.492C115.028 192.236 101.362 192.63 87.7038 191.796C80.2627 191.377 72.8481 190.387 65.7249 188.183C65.1296 188.005 64.6005 187.847 64.0053 187.668C63.959 187.582 63.9987 187.45 64.0185 187.383ZM97.1599 171.273C101.406 172.254 108.622 173.908 115.944 175.448C118.451 175.981 121.083 176.335 123.643 176.45C131.56 176.723 139.418 176.472 147.289 175.935C164.077 174.741 180.647 172.108 196.774 167.101C208.224 163.515 219.185 158.914 229.3 152.325C235.749 148.11 241.697 143.166 246.361 136.97C250.311 131.718 253.064 125.89 253.826 119.249C254.601 112.324 253.094 105.8 249.874 99.7031C246.674 93.54 242.237 88.3804 237.033 83.8587C228.237 76.1658 218.092 70.8163 207.238 66.6286C196.186 62.3816 184.79 59.7667 173.097 58.1471C157.652 56.056 142.201 55.9149 126.743 57.7237C109.499 59.7211 92.7371 63.9595 76.8743 71.2143C67.8647 75.3143 59.4501 80.3154 52.001 86.9067C45.2266 92.6878 39.8147 99.455 36.8365 107.963C34.2024 115.561 34.0817 123.189 36.8649 130.745C38.934 136.353 42.3527 141.063 46.413 145.315C52.1399 151.222 58.9187 155.781 66.2202 159.556C75.1421 164.178 84.5074 167.559 97.1599 171.273ZM191.339 58.8343C191.299 58.967 191.345 59.0532 191.306 59.1859C192.562 59.5619 193.819 59.938 195.076 60.314C202.92 62.5167 210.519 65.2969 217.794 68.9199C226.154 73.012 233.932 78.0867 240.743 84.463C246.027 89.4422 250.477 95.0395 253.366 101.76C257.617 111.636 257.43 121.413 252.785 131.156C249.781 137.343 245.5 142.496 240.459 147.061C233.949 152.921 226.593 157.516 218.801 161.402C208.402 166.532 197.52 170.144 186.328 172.868C172.814 176.127 159.083 177.946 145.232 178.717C144.577 178.738 143.902 178.826 143.247 178.847C143.651 179.184 143.982 179.283 144.418 179.269C151.357 179.683 158.321 180.249 165.253 180.443C182.133 180.867 198.907 179.958 215.55 176.841C227.76 174.566 239.607 171.099 250.78 165.549C257.799 162.082 264.335 157.821 270.097 152.532C274.774 148.22 278.003 142.968 279.876 136.95C282.411 128.96 281.89 121.068 279.015 113.339C276.324 105.955 271.874 99.6348 266.504 93.9793C257.616 84.6682 246.969 77.867 235.315 72.5C225.943 68.1773 216.314 64.7172 206.3 62.2991C201.346 61.0336 196.333 59.9671 191.339 58.8343ZM284.959 124.3C285.025 124.32 285.111 124.273 285.111 124.273C285.124 123.988 285.204 123.723 285.197 123.504C285.621 117.992 284.869 112.561 283.203 107.291C280.506 98.9644 276.029 91.7687 270.263 85.2714C263.796 77.986 256.296 71.9823 248.036 66.8354C231.204 56.3763 212.897 49.8858 193.657 45.7911C183.63 43.6582 173.563 42.3809 163.297 41.7672C142.813 40.626 122.586 42.2368 102.708 47.495C89.3333 51.0117 76.6194 56.1722 64.8707 63.6459C57.5807 68.2605 50.9917 73.6632 45.4012 80.3046C45.0836 80.6434 44.8123 81.0683 44.4749 81.4734C44.8916 81.5258 45.1496 81.3861 45.4076 81.2464C56.336 74.1057 68.0777 68.582 80.4739 64.4832C117.034 52.3603 154.327 50.0722 192.14 56.3989C205.93 58.7181 219.284 62.4972 232.141 67.9352C242.055 72.131 251.387 77.3094 259.865 83.8952C266.419 88.9652 272.186 94.7396 276.788 101.756C281.093 108.322 284.015 115.414 284.668 123.346C284.833 123.756 284.906 123.995 284.959 124.3ZM33.7504 93.953C32.9433 94.7237 32.3677 95.2022 31.8385 95.7668C26.2812 101.334 21.5044 107.423 18.7579 114.916C16.0114 122.408 16.1488 129.896 19.5801 137.213C21.9603 142.263 25.4915 146.356 29.6644 149.991C35.1402 154.811 41.4099 158.422 48.0104 161.409C49.0951 161.879 50.1136 162.328 51.1983 162.797C30.4396 143.788 23.3205 121.342 33.7504 93.953ZM70.6758 171.879C70.6559 171.945 70.5501 172.058 70.5302 172.125C70.7749 172.27 71.0659 172.502 71.3106 172.647C76.5949 175.458 81.9984 177.87 87.5474 180.037C97.4286 183.861 107.614 186.909 118.011 189.008C119.09 189.258 120.207 189.376 121.319 189.275C138.609 188.087 155.86 186.308 173.011 184.138C173.382 184.105 173.792 183.938 174.162 183.904C173.454 183.62 172.753 183.555 172.032 183.556C159.028 183.424 146.157 182.609 133.259 180.919C126.328 180.001 119.416 179.017 112.411 178.584C100.638 177.953 89.0298 176.287 77.5875 173.586C75.3387 172.913 72.9841 172.353 70.6758 171.879ZM69.7703 71.8358C69.7902 71.7695 69.7439 71.6833 69.7637 71.6169C68.1894 72.3026 66.615 72.9883 65.1068 73.6937C56.4874 77.6936 48.2184 82.4491 40.5909 88.1917C39.8433 88.7633 39.0362 89.534 38.5797 90.3372C35.3838 95.9601 33.0939 101.926 32.1071 108.355C29.9546 121.809 32.578 134.234 39.8912 145.677C44.6388 153.171 50.9345 159.103 58.0174 164.332C60.0742 165.887 62.3559 166.931 64.8031 167.664C75.0746 170.665 85.6043 172.804 96.2002 174.239C97.8009 174.429 99.4015 174.619 101.022 174.742C84.9302 169.999 82.5029 169.201 71.7687 164.615C64.7514 161.575 58.151 157.865 52.0667 153.152C45.87 148.333 40.4805 142.744 36.8374 135.653C33.1017 128.39 31.8664 120.718 33.3497 112.631C34.5483 105.976 37.4069 100.036 41.4164 94.5842C46.6432 87.4724 53.2719 81.9369 60.6017 77.1896C63.6711 75.3608 66.7009 73.6647 69.7703 71.8358Z" fill="#121212"/>
</svg>
