<svg id="visual" viewBox="0 0 900 600" width="900" height="600" xmlns="http://www.w3.org/2000/svg" xmlns:xlink="http://www.w3.org/1999/xlink" version="1.1"><path d="M0 583L21.5 581.7C43 580.3 86 577.7 128.8 574.3C171.7 571 214.3 567 257.2 567.5C300 568 343 573 385.8 575.5C428.7 578 471.3 578 514.2 575.5C557 573 600 568 642.8 568.5C685.7 569 728.3 575 771.2 577.2C814 579.3 857 577.7 878.5 576.8L900 576L900 601L878.5 601C857 601 814 601 771.2 601C728.3 601 685.7 601 642.8 601C600 601 557 601 514.2 601C471.3 601 428.7 601 385.8 601C343 601 300 601 257.2 601C214.3 601 171.7 601 128.8 601C86 601 43 601 21.5 601L0 601Z" fill="#121212" stroke-linecap="round" stroke-linejoin="miter"></path></svg>