<svg id="visual" viewBox="0 0 900 600" width="900" height="600" xmlns="http://www.w3.org/2000/svg" xmlns:xlink="http://www.w3.org/1999/xlink" version="1.1"><path d="M0 27L21.5 29.2C43 31.3 86 35.7 128.8 37.7C171.7 39.7 214.3 39.3 257.2 36.7C300 34 343 29 385.8 27.8C428.7 26.7 471.3 29.3 514.2 28C557 26.7 600 21.3 642.8 22.2C685.7 23 728.3 30 771.2 33.8C814 37.7 857 38.3 878.5 38.7L900 39L900 0L878.5 0C857 0 814 0 771.2 0C728.3 0 685.7 0 642.8 0C600 0 557 0 514.2 0C471.3 0 428.7 0 385.8 0C343 0 300 0 257.2 0C214.3 0 171.7 0 128.8 0C86 0 43 0 21.5 0L0 0Z" fill="#121212" stroke-linecap="round" stroke-linejoin="miter"></path></svg>