<svg id="visual" viewBox="0 0 900 600" width="900" height="600" xmlns="http://www.w3.org/2000/svg" xmlns:xlink="http://www.w3.org/1999/xlink" version="1.1"><path d="M0 39L21.5 35.3C43 31.7 86 24.3 128.8 20.7C171.7 17 214.3 17 257.2 18.2C300 19.3 343 21.7 385.8 25.2C428.7 28.7 471.3 33.3 514.2 33.3C557 33.3 600 28.7 642.8 25.3C685.7 22 728.3 20 771.2 22.7C814 25.3 857 32.7 878.5 36.3L900 40L900 0L878.5 0C857 0 814 0 771.2 0C728.3 0 685.7 0 642.8 0C600 0 557 0 514.2 0C471.3 0 428.7 0 385.8 0C343 0 300 0 257.2 0C214.3 0 171.7 0 128.8 0C86 0 43 0 21.5 0L0 0Z" fill="#121212" stroke-linecap="round" stroke-linejoin="miter"></path></svg>