<svg width="521" height="391" viewBox="0 0 521 391" fill="none" xmlns="http://www.w3.org/2000/svg">
<g clip-path="url('#clip0_55_101')">
<path d="M446.55 195.45C446.55 292.05 332.1 390.75 235.85 390.75C139.6 390.75 61.2 292.05 61.2 195.45C61.2 98.85 139.6 4.70001 235.85 4.70001C332.1 4.70001 446.55 98.85 446.55 195.45Z" fill="#1E1E1E"></path>
<path fill-rule="evenodd" clip-rule="evenodd" d="M104.306 141.486C105.205 140.098 105.2 140.395 106.812 140.683C113.427 141.862 120.042 143.041 126.658 144.22C149.048 148.212 171.438 152.203 193.829 156.194C201.723 157.602 209.618 159.009 217.512 160.416C218.665 160.622 220.926 160.572 221.942 161.206C222.464 161.531 222.853 162.496 223.19 163.019C224.652 165.285 226.114 167.55 227.576 169.817C235.781 182.534 244.23 195.093 252.605 207.699C261.917 221.716 271.229 235.734 280.542 249.751L241.365 249.242C243.784 250.82 246.203 252.398 248.622 253.975C265.706 265.117 282.791 276.259 299.876 287.401L275.454 303.683L284.103 312.841C281.406 314.375 278.708 315.91 276.012 317.444C271.066 320.258 266.121 323.071 261.176 325.886C259.423 326.883 257.67 327.88 255.918 328.877C255.506 329.112 254.922 329.602 254.489 329.564C253.839 329.505 252.664 328.381 252.135 328.038C250.464 326.95 248.795 325.86 247.128 324.765C241.999 321.399 236.888 318.005 231.797 314.58C219.316 306.184 206.863 297.686 194.915 288.541C189.395 284.317 184.27 279.937 179.958 274.441C175.213 268.393 171.294 261.716 167.849 254.857C164.948 249.082 162.38 243.138 160.102 237.092C159.319 235.014 157.381 231.687 157.416 229.404C157.435 228.177 158.501 226.411 158.914 225.276C159.893 222.584 160.872 219.891 161.851 217.199C162.353 215.817 163.34 214.102 163.512 212.631C163.721 210.854 162.859 208.424 162.582 206.669C162.447 205.816 162.466 203.411 161.819 202.929C161.388 202.608 159.764 202.771 159.246 202.731C155.045 202.408 150.845 202.084 146.643 201.761C135.378 200.895 124.113 200.028 112.848 199.162C109.748 198.923 106.264 199.089 103.22 198.421C100.921 197.917 99.4838 196.073 98.7964 193.917C96.7333 187.443 94.7826 180.866 93.5264 174.182C92.3114 167.721 93.4847 162.695 96.134 156.717C98.453 151.484 101.192 146.295 104.306 141.486ZM403.16 203.451C400.933 211.935 397.822 222.547 391.248 228.694C388.749 231.031 385.413 232.558 382.373 234.044C377.902 236.227 373.316 238.179 368.7 240.035C360.553 243.309 351.995 246.937 343.314 248.526C340.904 248.967 339.677 248.534 337.671 247.088C334.302 244.659 331.255 241.742 328.243 238.894C323.415 234.33 318.718 229.618 314.122 224.82C331.533 224.778 349.488 223.982 366.527 220.241C379.507 217.392 392.541 211.519 403.16 203.451Z" fill="#121212"></path>
<path fill-rule="evenodd" clip-rule="evenodd" d="M225.406 24.4188C229.602 26.2886 231.816 31.4619 234.018 35.2031C236.662 39.6926 239.057 44.3943 240.407 49.4497C241.791 54.6297 241.983 60.3093 241.369 65.6241C241.1 67.9625 240.467 70.0907 239.798 72.3279C239.083 74.7192 240.197 76.0868 241.893 77.7729C245.415 81.2754 249.851 83.9629 252.466 88.2779C254.68 91.9341 257.256 92.6107 261.432 92.7675C271.802 93.1567 281.965 92.8356 292.24 94.8194C294.848 95.3231 297.441 95.9398 300.007 96.6281C300.85 96.854 301.732 97.2489 302.601 97.3282C303.853 97.4422 304.067 96.9441 305.003 96.4623C309.12 94.3432 314.345 96.3788 318.46 97.5414C328.848 100.477 338.649 104.472 348.065 109.766C358.232 115.483 369.071 119.921 379.144 125.807C388.876 131.494 397.619 138.651 406.695 145.29C415.926 152.042 424.681 159.348 433.217 166.956C441.468 174.308 449.997 181.525 457.377 189.775C464.106 197.296 469.421 206.2 472.987 215.662C474.177 218.82 473.444 220.81 469.724 219.768C469.394 222.963 467.013 224.298 463.994 223.615C464.921 226.295 467.038 229.926 465.827 232.81C464.216 236.645 459.6 233.854 457.337 232.359C457.583 235.442 458.894 240.447 456.348 242.935C452.402 246.79 445.743 241.877 442.949 238.996C435.828 231.655 431.273 222.571 424.951 214.651C417.115 204.835 408.288 195.581 399.429 186.695C398.73 185.993 390.845 177.533 389.715 178.683C393.155 184.38 395.905 190.651 400.715 195.384C402.999 192.177 404.653 193.757 405.082 196.977C405.596 200.848 406.17 204.924 405.456 208.804C404.053 216.44 399.233 223.702 394.168 229.421C388.869 235.401 382.291 239.956 375.233 243.621C371.238 245.697 367.231 247.641 362.933 249.004C361.008 249.614 359.08 250.322 357.103 250.746C355.202 251.153 353.147 251.125 351.387 252.047C367.147 259.571 384.583 262.741 400.38 270.071C404.193 271.84 411.85 276.439 407.981 281.608C404.988 285.607 398.187 285.748 393.723 286.546C397.007 289.646 396.518 292.524 392.201 294.212C390.466 294.89 388.658 295.204 386.809 295.252C385.553 295.285 383.383 294.838 382.369 295.825C386.283 297.619 391.619 297.51 394.836 300.661C398.118 303.875 394.198 306.461 391.265 307.701C387.407 309.331 382.102 311.051 378.177 309.085C375.075 307.531 372.211 307.868 368.78 307.46C365.243 307.038 361.747 306.281 358.335 305.263C345.343 301.387 333.38 294.213 321.907 287.156C310.444 280.106 299.754 272.096 289.868 262.955C287.43 260.7 285.399 258.017 282.906 255.834C280.283 253.536 277.536 253.33 274.18 253.368C266.551 253.455 258.936 252.097 251.311 252.992C262.271 261.252 273.853 268.528 285.382 275.947C289.769 278.771 294.38 282.535 299.538 283.766C301.8 284.306 306.655 284.664 307.407 287.454C307.956 289.49 306.215 289.832 305.172 290.936C303.662 292.536 305.788 293.071 307.347 293.734C309.312 294.568 311.105 294.838 313.245 294.617C316.521 294.278 319.091 294.391 322.143 295.794C326.939 297.998 332.089 299.185 336.897 301.34C338.889 302.233 339.412 304.894 340.373 306.701C341.884 309.541 343.63 312.244 345.344 314.964C348.574 320.09 351.362 325.363 355.946 329.453C359.963 333.037 364.435 336.211 368.798 339.362C375.612 344.285 384.28 350.371 382.09 360.026C379.924 369.571 370.032 368.545 362.493 366.84C359.321 366.123 354.985 364.117 351.786 365.06C349.026 365.874 347.125 365.995 344.261 365.345C340.941 364.591 337.6 364.101 334.236 363.581C327.185 362.49 320.075 360.692 313.337 358.334C310.105 357.203 307.406 355.693 304.861 353.382C304.105 352.697 303.555 351.723 302.549 351.731C301.695 351.739 300.372 353.256 299.711 353.782C297.623 355.445 295.313 356.834 292.93 354.856C291.409 353.593 290.055 350.846 292.255 349.545C293.942 348.548 297.022 349.691 298.231 347.805C299.498 345.831 296.667 342.967 295.78 341.362C293.105 343.178 289.168 346.851 286.066 343.811C283.58 341.377 286.345 339.899 288.638 339.12C291.471 338.156 294.75 338.281 293.306 334.492C292.485 332.34 291.172 330.412 290.961 328.063C290.801 326.278 291.316 324.56 291.329 322.788C291.351 319.623 287.947 316.896 284.982 316.146C283.171 315.688 282.633 317.235 281.521 318.421C279.887 320.164 277.799 321.469 275.717 322.606C272.302 324.471 268.718 325.952 265.139 327.457C262.768 328.454 258.576 329.76 260.269 332.783C262.747 337.207 256.939 335.089 254.845 334.086C249.974 331.75 245.055 329.521 240.245 327.058C230.38 322.005 221.303 315.766 212.59 308.937C204.036 302.232 195.684 295.111 187.913 287.508C184.148 283.824 180.549 279.95 177.344 275.767C173.901 271.273 171.002 266.4 167.494 261.952C163.854 257.334 160.256 252.855 157.911 247.408C155.739 242.362 153.273 236.728 153.233 231.184C153.19 225.059 153.215 219.557 155.24 213.682C156.085 211.23 157.1 208.677 158.573 206.534C158.997 205.918 161.219 203.811 160.764 202.971C160.789 203.018 155.714 203.793 155.184 203.844C151.815 204.166 148.426 203.588 145.07 203.275C135.147 202.349 125.129 202.696 115.243 201.333C111.515 200.82 107.471 201.359 103.833 200.412C102.114 199.966 101.691 198.981 100.428 198.176C99.8513 197.808 99.2347 197.93 98.6984 197.419C98.0706 196.82 97.9347 195.957 97.6569 195.177C96.1728 191.01 93.6721 187.289 92.2027 183.114C90.5507 178.418 90.6254 173.551 90.7455 168.642C88.2916 168.838 85.7141 168.854 83.4118 167.861C81.5537 173.7 73.551 173.595 68.6315 173.152C62.4879 172.598 55.2845 172.02 52.1707 165.854C48.5115 158.607 48.7531 149.81 48.3105 141.901C47.7905 132.613 47.6424 123.186 48.0988 113.893C48.487 105.988 50.2881 97.7831 55.3989 91.5097C59.9083 85.9746 67.7096 82.7352 73.8461 87.9004C78.4583 91.7835 80.4721 98.7768 80.7738 104.601C80.9274 107.565 80.789 110.227 84.4376 109.405C85.8403 109.089 87.1153 108.578 88.1497 110.017C89.0619 111.284 88.6432 113.116 87.4883 114.064C86.4417 114.924 84.4055 114.779 83.6886 116.057C82.9783 117.324 84.1018 119.354 85.448 119.612C86.981 119.906 88.1614 117.936 89.705 118.85C91.1195 119.688 90.3807 121.254 89.4328 122.17C88.3115 123.256 87.2313 123.483 88.0332 125.201C88.6478 126.519 89.878 127.397 90.4301 128.794C91.7926 132.242 92.2424 137.197 90.7272 140.665C93.3566 140.957 99.7139 144.068 101.782 141.552C102.533 140.639 102.622 139.298 103.433 138.367C104.387 137.271 105.721 136.805 107.133 136.629C110.151 136.251 113.24 137.169 116.172 137.761C121.033 138.743 125.923 139.603 130.806 140.47C140.63 142.216 150.545 143.431 160.345 145.307C170.124 147.178 179.802 149.545 189.473 151.902C194.545 153.138 199.593 154.527 204.702 155.598C209.477 156.598 214.453 157.335 218.897 159.45C218.019 154.015 215.567 149.021 214.038 143.767C212.466 138.363 212.025 132.969 212.912 127.404C213.725 122.306 214.93 117.351 217.532 112.845C218.583 111.023 219.741 109.208 221.256 107.739C222.333 106.694 223.85 105.825 224.702 104.578C225.542 103.349 225.363 103.063 223.85 102.497C223.009 102.182 222.246 102.086 221.448 101.645C220.715 101.239 220.084 100.502 219.222 100.361C217.234 100.037 214.327 101.964 212.506 102.65C210.019 103.585 207.451 104.428 204.797 104.713C196.087 105.648 185.757 100.596 179.786 94.475C177.793 92.4322 173.22 87.735 175.078 84.6197C176.059 82.9753 177.813 83.3661 179.286 82.6192C181.591 81.4494 180.13 79.5089 179.026 77.9688C176.017 73.7733 173.999 68.9719 171.844 64.3038C169.652 59.5527 166.646 55.3053 164.181 50.7064C162.412 47.4064 160.362 43.7151 159.549 40.0427C158.555 35.5577 161.591 34.9237 165.302 34.2811C177.04 32.248 188.597 29.5163 200.229 26.9729C204.866 25.9594 209.526 24.9291 214.193 24.0647C217.83 23.391 221.913 22.8629 225.406 24.4188ZM328.432 304.21C322.379 304.521 316.289 305.866 316.095 312.929C316.829 326.331 325.545 336.349 334.753 345.239C337.076 347.482 339.35 349.859 341.873 351.88C343.358 353.07 344.976 353.613 346.582 354.556C346.976 354.787 347.657 355.561 348.022 355.678C348.89 355.959 348.966 355.644 349.812 355.554C351.658 355.36 351.999 356.646 353.402 357.698C356.065 359.694 360.843 359.402 363.97 360.026C366.857 360.603 378.351 364.766 377.834 358.77C377.329 352.91 371.08 350.064 366.676 347.447C360.539 343.8 354.212 339.852 349.044 334.882C344.131 330.156 340.924 323.689 337.624 317.803C335.568 314.135 334.998 311.025 334.405 306.926C334.153 305.192 334.128 304.625 332.432 304.333C331.12 304.107 329.755 304.142 328.432 304.21ZM307.372 303.236C303.875 304.369 301.234 307.174 299.494 310.345C298.603 311.969 298.092 313.606 297.797 315.422C297.422 317.732 296.559 320.2 297.205 322.522C298.376 326.738 301.45 331.341 303.864 334.958C306.578 339.025 310.103 343.591 314.387 346.085C318.51 348.485 323.489 349.125 327.312 352.088C326.97 350.458 325.442 349.256 324.243 348.24C322.494 346.759 320.965 345.288 319.48 343.525C316.196 339.625 313.465 335.402 311.716 330.592C310.02 325.93 309.05 320.684 309.266 315.714C309.369 313.349 309.775 310.837 310.796 308.68C311.478 307.238 312.687 306.012 313.21 304.495C314.406 301.019 309.116 302.671 307.372 303.236ZM230.692 188.021C225.81 188.576 220.97 189.514 216.052 189.968C206.111 190.886 195.792 191.429 186.784 196.177C173.676 203.088 158.58 218.423 163.126 234.576C168.496 253.657 179.977 270.911 194.351 284.414C203.528 293.033 213.578 300.801 223.659 308.326C233.41 315.605 244.691 320.38 254.744 327.185C255.425 317.157 261.726 307.961 269.176 301.582C273.18 298.154 277.382 294.87 281.872 292.101C284.077 290.741 286.362 289.591 288.687 288.455C290.453 287.593 292.404 286.31 294.421 286.214C294.389 284.736 290.68 284.19 289.657 283.842C286.126 282.641 282.738 280.802 279.467 279.02C272.347 275.141 265.767 270.408 259.179 265.704C255.958 263.406 252.686 261.176 249.5 258.828C246.631 256.715 244.088 253.965 241.005 252.165C237.834 250.314 234.085 249.928 230.547 249.246C226.297 248.425 222.114 247.452 217.844 246.732C210.712 245.531 203.98 241.331 197.406 238.469C195.195 237.506 191.823 236.671 190.135 234.849C188.607 233.198 189.006 230.648 190.966 229.517C194.337 227.571 199.954 230.108 203.141 231.364C209.037 233.687 214.892 235.766 221.149 236.956C229.719 238.586 237.863 241.637 246.445 243.234C255.699 244.956 264.975 246.84 274.384 247.475C272.078 242.907 268.256 239.111 265.28 234.979C261.864 230.239 258.454 225.495 255.068 220.734C249.1 212.339 242.445 203.904 237.909 194.625C236.354 191.444 234.823 187.552 230.692 188.021ZM275.009 310.337C273.65 310.555 272.624 311.913 271.701 312.811C268.842 315.59 266.044 318.342 263.716 321.6C267.318 320.079 270.255 317.427 273.727 315.685C274.978 315.056 279.396 313.656 278.506 311.906C278.005 310.923 276.008 310.178 275.009 310.337ZM291.537 299.145C288.011 301.551 284.34 303.703 280.621 305.795C283.229 306.786 285.834 308.154 287.974 309.95C288.953 310.772 290.965 313.177 292.381 312.572C293.696 312.011 294.411 308.756 295.048 307.581C296.679 304.573 298.96 301.732 301.413 299.36C297.728 296.893 295.258 296.605 291.537 299.145ZM261.772 168.138C258.95 168.924 256.149 169.782 253.329 170.574C247.698 172.155 241.944 173.476 236.064 173.476C235.263 174.949 237.556 177.35 238.26 178.473C240.108 181.421 241.686 184.584 243.362 187.636C246.915 194.106 250.792 200.324 254.973 206.404C259.198 212.548 263.015 218.982 267.342 225.051C271.529 230.925 276.136 236.632 280.672 242.241C298.347 264.094 322.98 279.164 347.191 292.702C353.977 296.497 361.047 299.84 368.563 301.912C371.666 302.768 374.831 303.493 377.987 304.13C380.109 304.558 383.638 305.517 385.591 304.145C379.459 301.715 371.423 300.778 366.47 296.076C363.403 293.165 366.766 290.994 369.893 290.453C375.943 289.406 382.213 292.042 388.152 290.332C386.564 287.419 382.002 287.558 379.226 286.811C375.717 285.865 375.587 284.092 378.928 282.886C383.04 281.402 387.781 282.207 392.066 281.934C394.158 281.8 402.924 281.451 400.277 277.433C398.193 274.272 393.119 273.386 389.799 272.219C385.141 270.584 380.615 268.031 375.871 266.763C371.23 265.523 366.502 264.762 361.861 263.452C357.018 262.086 352.249 260.568 347.647 258.518C338.774 254.566 330.547 249.2 323.054 243.041C315.332 236.693 308.563 229.419 302.335 221.618C299.058 217.514 295.94 213.291 292.752 209.119C289.673 205.091 286.191 201.251 283.726 196.804C281.001 191.885 277.468 187.395 274.645 182.493C273.116 179.837 271.47 177.231 270.044 174.518C269.03 172.588 268.34 169.759 266.969 168.083C265.68 166.507 263.428 167.678 261.772 168.138ZM131.409 230.473C132.355 231.338 132.197 231.694 132.015 232.792C131.642 235.042 131.231 237.25 131.058 239.533C130.464 247.341 131.565 255.438 132.782 263.15C133.996 270.844 136.916 277.953 141.415 284.317C145.774 290.483 151.036 295.395 157.968 298.421C159.159 298.94 163.871 300.846 163.567 302.605C163.338 303.927 160.891 303.179 160.011 302.99C147.55 300.32 136.99 289.052 130.693 278.563C128.086 274.221 126.409 269.806 124.969 265.007C124.758 264.306 121.741 254.376 122.76 254.251C121.88 247.375 121.617 239.014 124.867 232.65C126.081 230.273 128.925 228.206 131.409 230.473ZM109.668 231.952C108.531 237.136 108.907 242.425 109.158 247.676C109.204 248.632 109.75 251.58 108.168 251.523C107.051 251.484 106.16 248.629 105.886 247.897C104.224 243.455 103.634 238.451 104.464 233.768C104.726 232.285 105.122 230.487 106.752 229.972C108.17 229.524 109.794 230.324 109.668 231.952ZM400.859 208.021C400.158 208.359 399.849 209.003 399.64 209.711C394.158 214.383 387.709 218.906 381.3 222.203C375.574 225.148 368.943 226.39 362.694 227.722C348.401 230.768 334.17 231.999 319.915 228.056C325.74 233.431 331.023 240.573 338.366 243.997C342.015 245.698 346.053 244.672 349.731 243.594C354.245 242.272 358.786 240.921 363.154 239.168C371.407 235.856 380.234 232.19 387.174 226.513C390.251 223.996 392.759 220.885 394.966 217.597C396.231 215.714 397.301 213.701 398.58 211.831C399.317 210.754 400.932 209.426 400.859 208.021ZM339.96 112.439C339.75 115.097 338.185 117.33 336.804 119.513C335.865 120.997 334.036 122.787 334.903 124.471C335.933 126.469 339.216 127.745 340.918 129.112C343.437 131.135 345.796 133.346 348.115 135.592C352.277 139.623 356.587 143.531 360.66 147.648C364.53 151.56 368.285 155.545 373.167 158.212C383.884 164.068 393.319 172.249 402.684 180.029C412.232 187.961 421.662 196.298 429.948 205.564C434.381 210.522 438.066 215.965 441.226 221.807C442.851 224.812 444.594 227.751 446.222 230.756C446.942 232.085 447.756 233.375 448.411 234.739C448.898 235.752 449.215 237.392 450.114 238.143C451.895 234.192 449.117 228.966 447.507 225.407C446.406 222.975 445.326 220.533 444.24 218.093C443.477 216.382 441.893 214.316 441.806 212.407C441.594 207.764 447.573 211.104 449.212 212.592C453.27 216.276 455.61 221.814 458.482 226.384C459.158 222.745 451.915 217.127 454.913 213.955C457.292 211.44 461.677 217.332 463.008 218.928C463.92 214.429 461.581 210.028 459.136 206.427C456.411 202.414 453.262 198.598 450.035 194.983C442.491 186.536 433.869 179.017 425.34 171.59C416.855 164.201 408.12 157.113 399.421 149.98C390.974 143.053 382.4 136.126 372.958 130.58C367.664 127.47 362.111 124.869 356.707 121.966C351.047 118.927 345.681 115.367 339.96 112.439ZM266.17 102.191C265.923 102.253 264.495 102.424 264.388 102.55C263.923 103.098 264.543 104.872 265.092 105.191C263.198 106.607 261.07 107.895 258.663 108.116C260.177 109.602 263.055 112.202 262.607 114.599C261.991 117.896 258.029 115.584 256.425 114.586C253.85 112.984 251.218 111.284 249.333 108.869C248.135 107.336 247.728 105.71 246.832 104.059C246.345 103.162 246.628 103 245.551 102.938C244.319 102.868 242.213 104.036 241.072 104.5C239.309 105.217 237.591 106.045 235.933 106.98C232.875 108.706 230.013 110.801 227.505 113.262C222.312 118.356 218.796 125.049 218.35 132.377C222.035 131.94 225.64 130.351 228.745 128.368C230.957 126.957 233.213 125.298 233.603 129.281C233.755 130.833 233.321 134.445 232.39 135.645C231.52 136.766 231.145 135.857 230.242 136.529C229.199 137.308 229.75 138.428 229.75 139.521C229.247 139.099 228.744 138.677 228.242 138.255C227.332 139.443 228.361 138.807 228.705 139.526C228.905 139.945 227.534 141.152 227.261 141.365C226.694 141.808 226.382 141.442 225.734 142.078C225.318 142.487 224.869 143.405 224.418 143.916C222.085 146.555 225.174 150.692 226.395 153.49C227.299 155.563 228.286 157.595 229.227 159.65C229.916 161.154 230.288 162.939 231.202 164.325C233.018 167.076 237.178 165.573 239.893 165.236C243.576 164.779 247.193 164.311 250.88 163.964C253.042 163.761 255.484 162.504 252.708 160.876C249.954 159.261 240.438 158.955 240.376 154.801C240.311 150.385 246.447 149.651 249.524 150.03C254.026 150.585 256.934 151.721 260.014 155.118C259.324 148.64 254.727 143.282 253.702 136.782C253.423 135.016 252.566 124.134 256.809 128.836C259.081 131.354 260.881 135.164 262.561 138.076C265.102 142.484 267.318 147.065 269.652 151.583C271.878 155.896 275.14 160.04 276.699 164.627C277.577 167.208 278.802 172.632 281.587 173.948C283.371 174.792 286.384 173.688 288.226 173.419C289.365 173.252 290.476 173.089 291.453 172.432C291.958 172.092 292.458 171.21 293.097 171.111C294.936 170.826 295.411 173.637 295.286 174.931C295.093 176.926 294.176 177.444 292.315 177.676C295.452 179.213 290.619 184.021 289.771 185.938C289.726 185.84 289.176 184.492 288.767 184.494C287.954 184.497 291.258 191.001 291.507 191.454C293.24 194.593 295.416 197.416 297.521 200.31C298.731 201.973 300.472 205.908 302.933 205.536C304.296 205.33 307.128 202.524 308.199 204.448C309.165 206.184 306.181 208.045 305.731 209.425C304.978 211.74 307.813 214.173 309.483 215.387C313.911 218.603 319.651 219.362 324.891 220.333C323.889 218.983 321.709 218.248 321.666 216.315C321.636 215 322.565 214.283 321.937 212.853C321.42 211.675 320.124 210.991 319.739 209.728C319.313 208.336 319.984 206.755 320.749 205.605C323.992 200.73 331.235 202.759 335.482 204.974C335.169 205.112 334.908 205.311 334.702 205.572L334.652 205.638L334.663 205.631C335.208 205.297 337.571 206.343 337.865 206.555C338.796 207.226 340.051 208.789 340.694 209.757C342.762 212.874 343.059 216.674 341.984 220.207C354.936 220.207 367.138 216.755 378.729 211.253C381.377 209.997 383.977 209.192 386.485 207.611C389.061 205.987 391.509 204.185 394.039 202.494C396.416 200.906 396.201 199.953 394.609 197.696C392.671 194.948 390.963 192.019 388.811 189.428C388.481 190.146 388.352 191.582 387.646 192.023C386.865 192.51 386.149 191.542 385.623 191.909C385.67 191.876 384.007 194.459 383.739 193.816C384.432 195.48 381.658 194.417 381.167 194.109C381.281 195.669 379.985 197.011 379.257 194.926C377.279 196.736 372.59 195.079 375.119 192.289C376.367 190.911 377.726 190.179 378.512 188.38C379.39 186.367 379.697 184.089 379.807 181.913C380.068 176.783 377.292 174.387 373.812 171.061C371.869 169.203 369.84 167.44 367.841 165.644C366.083 164.066 364.563 162.111 362.719 160.648C361.395 159.597 360.338 159.295 359.053 160.207C358.523 160.583 358.351 161.061 357.671 161.423C356.798 161.888 355.505 162.175 354.532 162.297C349.642 162.906 343.982 161.229 339.5 159.423C338.273 158.928 337.685 158.123 336.623 157.511C335.951 157.124 335.379 157.359 334.666 156.896C332.803 155.688 332.897 153.748 334.251 152.238C337.424 148.7 341.983 151.883 345.226 149.025C349.266 145.465 342.529 140.542 339.808 138.363C337.63 136.618 335.758 136.24 333.097 135.783C332.539 135.686 328.841 134.619 330.135 136.153C327.262 136.079 325.849 136.091 323.536 137.884C322.929 138.354 322.122 138.799 321.955 139.601C321.867 140.025 322.739 140.11 322.741 140.106C322.624 140.39 321.746 140.907 321.619 140.997C323.099 141.173 322.715 144.077 322.333 144.093L322.311 144.091L322.354 144.128C323 144.74 321.542 145.682 321.048 145.84C319.644 146.29 318.312 145.313 317.373 144.338C315.272 142.155 313.746 138.44 313.881 135.414C314.07 131.167 316.859 128.704 319.16 125.52C320.882 123.138 318.323 121.871 316.543 120.376C314.363 118.548 311.399 116.3 310.682 113.388C310.029 110.735 311.839 109.828 314.158 110.625C317.292 111.703 319.828 114.476 322.606 116.212C325.071 117.752 328.183 120.897 331.195 121.076C330.642 119.11 327.905 119.319 326.847 117.858C325.448 115.928 327.62 115.068 329.264 115.289C330.539 115.46 334.179 118.161 334.084 115.047C334.033 113.379 331.251 112.82 330.039 112.338C323.883 109.888 317.578 108.216 311.05 107.081C308.934 106.714 308.392 106.971 307.37 108.882C307.023 109.531 305.775 112.515 305.091 110.536C304.197 112.158 303.936 113.886 301.992 114.538C299.517 115.367 296.335 114.14 294.056 113.188C292.099 112.371 290.239 111.225 288.983 109.478C288.359 108.609 287.903 107.645 287.608 106.617C287.358 105.745 287.476 104.314 287.024 103.522C286.267 102.196 284.463 102.482 283.071 102.35C279.962 102.054 276.893 101.787 273.768 101.751C271.171 101.721 268.692 101.563 266.17 102.191ZM333.757 218.648C332.763 219.004 334.529 220.194 335.112 220.054C334.873 219.668 334.476 218.391 333.757 218.648ZM334.652 205.638L334.625 205.659C334.591 205.69 334.567 205.73 334.557 205.779C334.58 205.743 334.603 205.707 334.627 205.673L334.652 205.638ZM354.539 174.382C355.439 175.138 355.076 176.889 355.692 177.965C357.341 180.844 360.313 183.685 363.113 185.424C366.129 187.297 367.556 189.728 368.295 193.12C368.448 193.821 368.909 194.795 368.684 195.521C368.474 196.199 367.712 196.424 367.478 197.029C367.371 197.305 367.819 199.444 367.765 199.45C367.505 199.482 366.746 198.406 366.75 198.411C366.45 199.157 366.554 200.005 365.744 200.404L365.645 200.448L365.658 200.458C365.86 200.614 366.782 201.379 366.562 201.547C366.255 201.781 365.505 201.621 365.122 201.758C364.518 201.973 364.083 202.511 363.502 202.761C361.943 203.432 360.146 203.225 358.501 202.989C355.037 202.491 351.138 201.252 348.633 198.685C345.599 195.576 346.319 192.354 346.045 188.866C345.738 184.954 348.56 179.023 350.827 175.989C351.601 174.954 353.151 173.219 354.539 174.382ZM105.307 143.94C105.111 144.403 105.306 145.126 105.191 145.634C104.959 146.664 104.362 147.566 103.787 148.43C102.711 150.048 101.628 151.531 100.894 153.356C99.0912 157.837 97.4193 162.666 96.5559 167.417C94.7039 177.618 100.887 186.031 101.224 195.965C104.064 192.976 108.382 192.833 112.229 192.824C117.349 192.813 122.422 193.028 127.522 193.476C137.28 194.334 147.255 194.682 156.502 198.249C157.521 198.641 158.284 198.811 159.306 199.026C160.429 199.261 159.834 198.735 160.656 199.4C160.876 199.579 160.965 200.225 161.196 200.451C162.39 201.62 163.106 200.826 164.117 199.572C166.902 196.121 169.68 192.985 173.261 190.303C180.892 184.589 189.438 181.95 198.844 181.1C204.236 180.613 209.499 180.333 214.914 180.385C220.084 180.435 225.542 180.529 230.44 182.379C229.222 178.893 227.141 175.769 225.464 172.499C224.649 170.911 223.894 169.241 222.858 167.78C221.947 166.496 220.573 165.446 219.943 163.979C219.83 164.274 219.718 164.568 219.605 164.862C209.66 162.014 199.404 160.479 189.207 158.85C178.965 157.213 168.85 154.945 158.629 153.2C153.498 152.324 148.347 151.798 143.178 151.211C138.203 150.646 133.406 149.541 128.5 148.602C123.532 147.652 118.696 146.5 113.811 145.19C111.763 144.641 109.824 143.883 107.83 143.223C106.24 142.696 105.879 142.583 105.307 143.94ZM325.234 162.025C325.531 163.244 324.582 164.817 324.278 165.975C323.933 167.289 323.184 167.815 322.794 169.009C322.455 170.046 323.066 175.546 320.414 173.904C320.495 174.299 320.932 174.84 320.977 175.192C321.034 175.63 320.607 176.301 320.731 176.679C320.842 177.019 322.007 178.016 322.29 178.584C323.404 180.817 324.191 183.387 324.74 185.819C325.311 188.354 326.006 191.867 323.907 193.617C323.402 194.037 322.962 194.15 322.444 194.655C322.384 195.122 322.171 195.509 321.805 195.813C321.604 195.87 321.443 195.82 321.323 195.664C320.683 196.011 320.896 194.553 320.144 195.97C319.962 196.311 320.29 197.484 320.127 197.364C319.832 197.146 318.942 196.218 318.654 196.201C318.008 197.079 318.023 196.184 317.341 196.309C317.314 196.674 317.117 196.874 316.749 196.91C316.461 196.845 316.174 196.778 315.887 196.712C314.151 196.722 311.586 195.993 309.919 195.533C306.736 194.654 304.465 192.465 303.775 189.147C302.337 182.235 308.15 173.596 312.306 168.57C313.725 166.854 323.695 155.711 325.234 162.025ZM352.988 184.29C352.943 184.871 353.123 185.738 352.471 185.802C352.5 185.148 352.225 184.309 352.988 184.29ZM307.706 183.306C308.002 184.98 308.071 184.024 307.398 185.175C307.171 184.497 307.274 183.875 307.706 183.306ZM355.893 181.149C356.152 181.47 357.141 182.338 356.289 182.56C355.544 182.754 355.862 181.545 355.893 181.149ZM320.039 169.548C319.701 171.349 320.722 170.918 322.126 170.591C321.431 170.243 320.735 169.896 320.039 169.548ZM59.6661 96.9085C52.9369 102.683 52.7339 112.78 52.9461 120.907C53.2345 131.95 53.9046 143.024 54.9721 154.019C55.4544 158.986 56.8714 161.516 61.7751 163.181C67.0873 164.984 72.8092 164.635 78.3194 164.315C77.2657 156.123 75.2035 145.345 83.421 139.893C84.173 139.394 84.8609 139.026 85.7762 138.979C86.3806 138.948 87.2476 139.496 87.8215 139.215C88.9821 138.648 88.3181 137.041 87.938 136.132C86.7826 133.368 84.5775 131.157 82.7886 128.812C80.5418 125.868 78.6114 125.947 75.2565 126.31C73.9189 126.456 68.657 127.055 69.6929 124.199C70.4453 122.123 74.5793 122.643 76.2542 122.162C77.5236 121.797 77.7826 121.637 77.7282 120.339C77.6422 118.312 76.4796 117.761 74.6759 117.817C72.3558 117.887 68.339 119.121 66.4071 117.296C63.6484 114.69 67.7396 112.866 69.8139 112.512C71.9854 112.141 74.8896 112.478 75.3908 109.791C75.868 107.227 74.5157 104.124 73.4589 101.867C72.4362 99.6829 71.0386 96.8998 68.9047 95.5887C65.8937 93.7392 62.179 94.7517 59.6661 96.9085ZM85.7843 145.151C83.0511 145.764 81.4784 149.323 81.161 151.811C80.8542 154.218 81.0633 157.654 82.8283 159.504C85.1448 161.931 89.183 161.768 91.6761 164.046C92.7807 158.564 94.823 153.287 97.5058 148.388C95.3872 147.805 93.3225 147.05 91.2334 146.373C89.705 145.878 87.4257 144.782 85.7843 145.151ZM261.231 156.962C261.844 157.486 262.038 157.646 262.196 158.468C260.741 158.561 261.179 158.093 261.231 156.962ZM275.664 117.964C277.938 118.023 279.001 118.759 280.826 119.849C282.127 120.626 283.705 119.79 283.705 121.764C287.417 118.846 294.341 126.38 296.943 128.353C299.689 130.435 302.392 132.885 302.696 136.6C302.786 137.7 302.558 138.827 302.723 139.923C302.848 140.748 303.37 141.573 303.281 142.429C303.176 143.421 302.337 144.001 302.144 144.933C302.068 145.303 302.329 146.044 302.167 146.343C300.503 149.394 298.37 151.898 294.718 152.199C291.538 152.462 288.024 151.327 285.706 149.108C283.65 147.139 282.423 144.189 281.891 141.431C281.798 140.954 281.974 139.86 281.816 139.457C281.588 138.869 281.244 138.858 280.961 138.383C280.209 137.121 279.131 134.743 280.106 133.356C277.701 133.899 275.874 128.747 274.976 127.245C274.303 126.12 272.681 125.239 272.231 124.145C271.613 122.644 273.833 122 273.064 120.954C272.652 120.394 270.443 120.775 270.66 119.373C270.861 118.076 274.795 117.941 275.664 117.964ZM322.244 144.041C322.266 144.069 322.288 144.085 322.31 144.091L322.311 144.091L322.303 144.084L322.244 144.041ZM315.896 132.807C316.105 132.628 317.222 131.497 317.353 132.345C317.46 133.04 316.23 132.807 315.896 132.807ZM211.631 44.7011C209.206 44.8492 207.045 47.4669 205.239 48.8412C202.542 50.8926 199.355 52.3986 196.176 53.5373C192.476 54.8617 188.673 56.0405 184.875 57.0454C181.022 58.065 177.008 58.2736 173.167 59.3329C175.068 62.811 176.968 66.2896 178.869 69.7682C179.703 68.6208 179.418 67.3255 180.789 66.5007C181.741 65.9283 183.119 65.85 184.195 65.6383C187.191 65.0486 190.478 64.5266 193.519 65.1367C195.481 65.5305 197.664 67.041 195.806 69.1505C194.634 70.4815 192.11 70.1396 191.903 72.2536C191.706 74.2791 193.774 76.0191 193.296 78.1489C192.622 81.1426 189.631 80.2462 188.301 78.3107C187.115 76.5849 187.565 73.5159 185.734 72.2714C184.642 71.5291 181.722 71.2615 180.545 71.8969C182.707 75.8869 186.909 80.8063 184.444 85.5762C183.687 87.0416 182.032 87.6002 183.141 89.0401C184.42 90.7008 188.111 92.0689 190.076 91.5606C191.916 91.0849 194.024 89.0121 196.093 90.0378C198.047 91.006 196.662 92.6499 196.835 94.1707C197.355 98.7513 206.749 96.1387 209.299 95.5307C211.858 94.9212 214.528 93.4462 217.169 93.3856C219.66 93.3281 221.973 94.5289 223.947 95.9352C225.425 96.9884 227.884 100.07 229.759 100.172C231.64 100.276 234.307 97.4905 235.967 96.6475C238.946 95.1343 242.201 94.6968 245.358 93.6884C245.859 93.5286 248.048 93.0783 248.088 92.3472C248.125 91.6446 245.537 90.1075 245.098 89.7717C241.082 86.7052 238.141 82.4777 233.963 79.6061C232.1 78.3255 230.088 77.4229 227.912 76.8464C226.704 76.5269 223.415 76.096 223.329 74.3737C229.123 73.403 229.268 66.1736 226.824 62.0743C225.27 59.4672 222.859 58.2273 219.813 58.788C215.4 59.601 214.593 62.8313 213.582 66.6645C209.976 64.7027 206.045 59.8982 205.831 55.6645C205.593 50.9577 210.647 48.9338 211.631 44.7011ZM319.288 76.3337C325.368 77.4617 331.316 78.9651 337.171 80.9632C340.777 82.1939 346.024 83.2522 349.143 85.5611C350.053 86.2357 351.2 87.7194 350.369 88.9048C349.653 89.927 347.901 89.6517 346.865 89.4925C342.157 88.7685 337.546 86.7985 332.889 85.7361C320.511 82.9133 307.814 81.5869 295.168 80.6833C291.681 80.4345 288.191 80.2193 284.704 79.9741C281.8 79.7705 278.608 79.8626 275.764 79.2053C273.522 78.6868 272.963 77.0389 274.643 75.1833C276.28 73.3751 279.026 73.6569 281.22 73.3267C293.982 72.4933 306.754 74.008 319.288 76.3337ZM298.136 61.5641C302.274 62.9897 297.438 63.6695 295.629 63.5199C295.015 63.4695 286.922 62.6666 286.922 62.9154C285.307 62.9154 281.033 64.1508 279.873 62.5176C278.627 60.7638 283.962 60.1481 285.04 60.0703C289.185 59.7716 294.152 60.1919 298.136 61.5641Z" fill="white"></path>
</g>
<defs>
<clipPath id="clip0_55_101">
<rect width="521" height="390.75" fill="white"></rect>
</clipPath>
</defs>
</svg>
