<svg width="936" height="676" viewBox="0 0 936 676" fill="none" xmlns="http://www.w3.org/2000/svg">
<path d="M0.956907 199.345C0.95351 199.246 0.956909 199.345 0.953511 199.246C0.950114 199.147 0.953511 199.246 0.950114 199.147C0.946716 199.048 0.950113 199.147 0.946716 199.048C0.943318 198.95 0.946715 199.048 0.943318 198.95C0.939921 198.851 0.943319 198.95 0.939922 198.851C0.929215 198.745 0.939914 198.851 0.929207 198.745C0.918986 198.653 0.9292 198.745 0.918979 198.653C0.915581 198.554 0.918993 198.653 0.908287 198.547C0.898065 198.456 0.915589 198.554 0.898058 198.456C0.887351 198.35 0.898073 198.456 0.887366 198.35C0.877144 198.258 0.887352 198.35 0.86982 198.252C0.859599 198.16 0.817786 197.56 0.859614 198.16C0.894132 198.753 0.911647 198.852 0.953474 199.452C1.00213 200.044 0.960305 199.444 0.956907 199.345Z" stroke="black" stroke-width="0.4"></path>
<path d="M8.92214 198.272C8.90121 198.075 8.9221 198.272 8.90118 198.075C8.88025 197.877 8.90118 198.075 8.88025 197.877C8.86615 197.673 8.88027 197.877 8.86616 197.673C8.84524 197.475 8.86617 197.673 8.83841 197.483C8.81017 197.278 8.84524 197.475 8.81018 197.278C8.78925 197.081 8.81018 197.278 8.78925 197.081C8.75419 196.884 8.78925 197.081 8.75419 196.884C8.71912 196.687 8.75418 196.884 8.71912 196.687C8.68406 196.49 8.71911 196.687 8.68405 196.49C8.64899 196.293 8.68404 196.49 8.64898 196.293C8.61392 196.097 8.64899 196.293 8.6071 196.104C8.57204 195.907 8.40406 194.724 8.57203 195.907C8.72587 197.09 8.76094 197.287 8.92891 198.47C9.1042 199.66 8.92893 198.47 8.92214 198.272Z" stroke="black" stroke-width="0.4"></path>
<path d="M16.8397 197.045C16.8085 196.756 16.8397 197.045 16.8085 196.756C16.7769 196.453 16.8085 196.756 16.7769 196.453C16.7384 196.157 16.7769 196.453 16.7384 196.157C16.6999 195.861 16.7384 196.157 16.6931 195.869C16.6474 195.566 16.7 195.861 16.6474 195.566C16.5948 195.271 16.6474 195.566 16.5948 195.271C16.5422 194.975 16.5948 195.271 16.5422 194.975C16.4896 194.68 16.5422 194.975 16.4896 194.68C16.4302 194.392 16.4896 194.68 16.4302 194.392C16.3634 194.097 16.4302 194.392 16.3634 194.097C16.2967 193.802 16.3634 194.097 16.2899 193.809C16.2232 193.515 15.9359 191.742 16.2232 193.515C16.5105 195.288 16.563 195.583 16.8713 197.348C17.1795 199.114 16.8713 197.348 16.8397 197.045Z" stroke="black" stroke-width="0.4"></path>
<path d="M24.8457 196.749C24.818 196.354 24.8457 196.749 24.8039 196.354C24.7761 195.959 24.818 196.354 24.7688 195.952C24.727 195.557 24.7761 195.959 24.727 195.557C24.6783 195.17 24.727 195.557 24.671 195.163C24.6223 194.776 24.6783 195.17 24.615 194.769C24.559 194.375 24.615 194.769 24.559 194.375C24.4962 193.988 24.559 194.375 24.4889 193.981C24.426 193.594 24.4962 193.988 24.4187 193.587C24.3486 193.193 24.4261 193.594 24.3486 193.193C24.2717 192.807 24.3486 193.193 24.2717 192.807C24.1874 192.413 24.2717 192.807 24.1806 192.421C24.0963 192.027 23.7463 189.662 24.0963 192.027C24.4396 194.4 24.5024 194.787 24.8808 197.151C25.2518 199.509 24.8807 197.151 24.8457 196.749Z" stroke="black" stroke-width="0.4"></path>
<path d="M32.9417 198.247C32.9247 197.752 32.9417 198.247 32.9247 197.752C32.9004 197.251 32.9247 197.752 32.9004 197.251C32.8693 196.757 32.9004 197.251 32.8693 196.757C32.8382 196.262 32.8693 196.757 32.8309 196.256C32.7929 195.769 32.8382 196.262 32.7856 195.762C32.7404 195.268 32.7929 195.769 32.7404 195.268C32.6878 194.768 32.7404 195.268 32.6878 194.768C32.6284 194.274 32.6878 194.768 32.6284 194.274C32.5622 193.788 32.6285 194.274 32.5549 193.782C32.4887 193.296 32.5622 193.788 32.4814 193.289C32.4079 192.796 32.4887 193.296 32.4079 192.796C32.3202 192.304 32.0482 189.327 32.3202 192.304C32.5922 195.28 32.6448 195.781 32.9519 198.749C33.2663 201.724 32.9519 198.749 32.9417 198.247Z" stroke="black" stroke-width="0.4"></path>
<path d="M40.8907 201.851C40.9268 201.256 40.9048 201.851 40.9195 201.249C40.9415 200.654 40.9268 201.256 40.9415 200.654C40.9563 200.052 40.9415 200.654 40.9494 200.059C40.9641 199.457 40.9562 200.052 40.9568 199.45C40.9579 198.863 40.9641 199.457 40.9506 198.856C40.9443 198.262 40.9579 198.863 40.9443 198.262C40.9308 197.661 40.9443 198.262 40.9307 197.661C40.9031 197.061 40.9308 197.661 40.8962 197.068C40.8685 196.468 40.9031 197.061 40.8686 196.468C40.8267 195.868 40.8686 196.468 40.8267 195.868C40.7781 195.275 40.8267 195.868 40.7781 195.275C40.7221 194.676 40.6768 191.09 40.7221 194.676C40.7674 198.261 40.781 198.862 40.8618 202.454C40.9495 206.038 40.8687 202.446 40.8907 201.851Z" stroke="black" stroke-width="0.4"></path>
<path d="M48.4413 207.04C48.5306 206.343 48.4413 207.04 48.5237 206.351C48.613 205.654 48.5306 206.343 48.613 205.654C48.6882 204.958 48.613 205.654 48.6814 204.966C48.7492 204.263 48.6882 204.958 48.7492 204.263C48.8102 203.567 48.7492 204.263 48.8034 203.575C48.8571 202.872 48.8102 203.567 48.8503 202.88C48.8899 202.178 48.8571 202.872 48.8899 202.178C48.9226 201.483 48.8899 202.178 48.9153 201.477C48.9481 200.782 48.9226 201.483 48.9408 200.775C48.9594 200.081 48.9481 200.782 48.9526 200.089C48.9639 199.388 48.9594 200.081 48.9565 199.381C48.961 198.687 49.2633 194.51 48.9469 198.688C48.6373 202.859 48.5904 203.554 48.3378 207.737C48.078 211.913 48.3379 207.737 48.4413 207.04Z" stroke="black" stroke-width="0.4"></path>
<path d="M55.58 212.596C55.7511 211.812 55.5873 212.603 55.7443 211.82C55.9014 211.036 55.7511 211.812 55.894 211.029C56.037 210.246 55.9014 211.036 56.037 210.246C56.1658 209.463 56.037 210.246 56.1658 209.463C56.2872 208.674 56.1657 209.463 56.2872 208.674C56.4014 207.877 56.2872 208.674 56.3946 207.885C56.4946 207.089 56.4014 207.877 56.4946 207.089C56.5878 206.3 56.4946 207.089 56.5878 206.3C56.6737 205.505 56.5878 206.3 56.6664 205.498C56.7454 204.71 56.6737 205.505 56.7381 204.703C56.8031 203.916 56.7454 204.71 56.7957 203.909C56.8534 203.114 57.5471 198.385 56.8534 203.114C56.1596 207.843 56.0455 208.64 55.4156 213.373C54.7862 218.121 55.4229 213.38 55.58 212.596Z" stroke="black" stroke-width="0.4"></path>
<path d="M62.7904 216.948C63.0084 216.084 62.7904 216.948 63.0011 216.077C63.2118 215.207 63.0084 216.084 63.2045 215.2C63.401 214.33 63.2118 215.207 63.3937 214.323C63.5829 213.447 63.401 214.33 63.5756 213.44C63.7507 212.563 63.5829 213.447 63.7507 212.563C63.9044 211.681 63.7507 212.563 63.9044 211.681C64.058 210.798 63.9044 211.681 64.0507 210.791C64.1902 209.909 64.058 210.798 64.1902 209.909C64.3224 209.02 64.1902 209.909 64.3151 209.014C64.4331 208.125 64.3224 209.02 64.4263 208.132C64.5371 207.237 64.4332 208.125 64.5371 207.237C64.6269 206.35 65.6053 201.052 64.6196 206.343C63.6412 211.64 63.4802 212.516 62.5656 217.819C61.651 223.121 62.5656 217.819 62.7904 216.948Z" stroke="black" stroke-width="0.4"></path>
<path d="M70.61 218.639C70.8529 217.676 70.6174 218.646 70.8456 217.669C71.0743 216.706 70.8529 217.676 71.067 216.699C71.2884 215.729 71.0743 216.706 71.2743 215.73C71.481 214.746 71.2884 215.729 71.4742 214.753C71.6669 213.77 71.481 214.746 71.6596 213.764C71.8313 212.788 71.6669 213.77 71.8312 212.788C71.9956 211.806 71.8313 212.788 71.9957 211.806C72.1527 210.817 71.9957 211.806 72.1386 210.818C72.2815 209.83 72.1527 210.817 72.2815 209.83C72.4103 208.842 72.2815 209.83 72.3962 208.842C72.5177 207.847 72.4103 208.842 72.5177 207.847C72.6182 206.861 73.6825 200.973 72.6109 206.854C71.5393 212.735 71.3608 213.717 70.3604 219.61C69.3672 225.509 70.3745 219.609 70.61 218.639Z" stroke="black" stroke-width="0.4"></path>
<path d="M79.2271 216.765C79.4451 215.697 79.2344 216.772 79.4378 215.69C79.6416 214.621 79.4451 215.697 79.6343 214.615C79.8236 213.533 79.6416 214.621 79.8236 213.533C79.9914 212.444 79.8236 213.533 79.9846 212.452C80.1524 211.364 79.9914 212.444 80.1383 211.364C80.2919 210.276 80.1524 211.363 80.2846 210.269C80.4173 209.189 80.2919 210.276 80.41 209.183C80.5354 208.096 80.4173 209.189 80.5281 208.089C80.6394 207.003 80.5354 208.096 80.6253 207.003C80.7292 205.91 80.6394 207.003 80.7151 205.91C80.7976 204.811 80.7292 205.91 80.7908 204.818C80.8592 203.719 81.7462 197.201 80.8519 203.712C79.9581 210.238 79.8112 211.319 79.0022 217.841C78.1932 224.364 79.0095 217.848 79.2271 216.765Z" stroke="black" stroke-width="0.4"></path>
<path d="M88.2159 211.299C88.3662 210.112 88.2232 211.306 88.3593 210.119C88.4882 208.926 88.3662 210.112 88.4882 208.926C88.6029 207.734 88.4882 208.926 88.5956 207.727C88.7034 206.542 88.6029 207.734 88.6893 206.542C88.7826 205.343 88.7034 206.542 88.7684 205.344C88.8475 204.145 88.7826 205.343 88.8407 204.153C88.9057 202.955 88.8476 204.145 88.8916 202.955C88.9356 201.765 88.9057 202.955 88.9283 201.758C88.9582 200.569 88.9425 201.758 88.9509 200.562C88.9594 199.366 88.9582 200.569 88.9594 199.366C88.9537 198.17 88.9594 199.366 88.9537 198.17C88.9339 196.975 89.3672 189.814 88.9266 196.968C88.4791 204.13 88.4141 205.328 88.0656 212.486C87.7103 219.651 88.0729 212.492 88.2159 211.299Z" stroke="black" stroke-width="0.4"></path>
<path d="M96.8859 203.346C96.9334 202.049 96.8932 203.353 96.9265 202.057C96.9525 200.754 96.9334 202.049 96.9525 200.754C96.9649 199.466 96.9526 200.754 96.9576 199.459C96.9627 198.164 96.9649 199.466 96.9486 198.164C96.9322 196.863 96.9627 198.164 96.9253 196.871C96.8948 195.57 96.9322 196.863 96.8807 195.57C96.8433 194.277 96.8948 195.57 96.8292 194.277C96.7636 192.985 96.8434 194.277 96.7563 192.978C96.6766 191.686 96.7636 192.985 96.6697 191.693C96.5686 190.395 96.6765 191.686 96.5685 190.395C96.4464 189.104 96.5685 190.395 96.4464 189.104C96.3101 187.814 96.1212 180.045 96.3101 187.814C96.4991 195.583 96.5364 196.877 96.8243 204.643C97.1122 212.408 96.8384 204.642 96.8859 203.346Z" stroke="black" stroke-width="0.4"></path>
<path d="M104.871 195.013C104.816 193.621 104.878 195.02 104.802 193.621C104.733 192.23 104.816 193.621 104.725 192.223C104.635 190.839 104.733 192.23 104.628 190.833C104.517 189.443 104.642 190.832 104.517 189.443C104.391 188.053 104.517 189.443 104.377 188.054C104.237 186.665 104.391 188.053 104.223 186.665C104.069 185.277 104.237 186.665 104.063 185.284C103.887 183.889 104.069 185.277 103.88 183.896C103.684 182.509 103.887 183.889 103.677 182.516C103.467 181.13 103.684 182.509 103.453 181.13C103.229 179.758 103.467 181.13 103.215 179.759C102.977 178.387 102.118 170.061 102.963 178.388C103.814 186.707 103.968 188.096 104.919 196.412C105.869 204.728 104.926 196.405 104.871 195.013Z" stroke="black" stroke-width="0.4"></path>
<path d="M112.491 188.829C112.362 187.341 112.497 188.822 112.348 187.341C112.197 185.846 112.362 187.341 112.19 185.854C112.019 184.367 112.197 185.846 112.005 184.367C111.819 182.881 112.019 184.367 111.813 182.888C111.613 181.402 111.819 182.881 111.599 181.403C111.378 179.924 111.613 181.402 111.364 179.925C111.123 178.454 111.378 179.924 111.109 178.455C110.846 176.978 111.123 178.454 110.846 176.978C110.562 175.509 110.846 176.978 110.555 175.516C110.257 174.048 110.562 175.509 110.243 174.048C109.93 172.58 110.257 174.048 109.924 172.588C109.59 171.128 108.232 162.266 109.576 171.128C110.928 179.996 111.155 181.467 112.613 190.325C114.07 199.169 112.62 190.318 112.491 188.829Z" stroke="black" stroke-width="0.4"></path>
<path d="M120.351 186.974C120.198 185.395 120.359 186.981 120.184 185.395C120.009 183.809 120.198 185.395 120.002 183.803C119.806 182.224 120.009 183.809 119.799 182.232C119.582 180.647 119.806 182.224 119.575 180.64C119.337 179.064 119.582 180.647 119.33 179.071C119.078 177.495 119.337 179.064 119.063 177.495C118.79 175.927 119.078 177.495 118.783 175.92C118.489 174.36 118.79 175.927 118.482 174.353C118.173 172.793 118.489 174.36 118.159 172.793C117.823 171.234 118.173 172.793 117.816 171.241C117.465 169.683 117.823 171.234 117.451 169.683C117.086 168.125 115.552 158.69 117.079 168.132C118.592 177.575 118.859 179.151 120.498 188.575C122.13 197.993 120.505 188.568 120.351 186.974Z" stroke="black" stroke-width="0.4"></path>
<path d="M128.68 190.714C128.572 189.027 128.687 190.721 128.558 189.027C128.429 187.334 128.572 189.027 128.423 187.341C128.265 185.648 128.429 187.334 128.259 185.656C128.087 183.964 128.265 185.648 128.073 183.964C127.881 182.28 128.087 183.964 127.874 182.287C127.66 180.596 127.881 182.28 127.653 180.604C127.419 178.921 127.66 180.596 127.405 178.921C127.149 177.246 127.419 178.921 127.135 177.246C126.858 175.579 127.149 177.246 126.851 175.572C126.553 173.913 126.865 175.572 126.546 173.906C126.227 172.24 126.553 173.913 126.22 172.247C125.88 170.589 124.586 160.502 125.866 170.59C127.153 180.67 127.367 182.347 128.781 192.409C130.188 202.478 128.788 192.416 128.68 190.714Z" stroke="black" stroke-width="0.4"></path>
<path d="M136.956 199.918C136.965 198.121 136.962 199.911 136.95 198.121C136.931 196.325 136.965 198.121 136.924 196.318C136.884 194.529 136.938 196.317 136.87 194.53C136.808 192.735 136.884 194.529 136.808 192.735C136.718 190.941 136.808 192.735 136.704 190.941C136.6 189.148 136.718 190.941 136.586 189.148C136.461 187.362 136.6 189.148 136.453 187.355C136.3 185.571 136.461 187.362 136.286 185.571C136.119 183.787 136.3 185.571 136.104 183.787C135.909 182.004 136.119 183.787 135.901 181.997C135.685 180.222 135.909 182.004 135.671 180.222C135.433 178.44 134.788 167.701 135.426 178.448C136.056 189.187 136.167 190.974 136.939 201.709C137.704 212.437 136.953 201.708 136.956 199.918Z" stroke="black" stroke-width="0.4"></path>
<path d="M144.362 212.852C144.53 210.957 144.376 212.851 144.516 210.957C144.663 209.07 144.53 210.957 144.649 209.071C144.775 207.177 144.663 209.07 144.761 207.178C144.859 205.286 144.775 207.178 144.845 205.286C144.914 203.395 144.859 205.286 144.907 203.388C144.948 201.497 144.914 203.395 144.948 201.497C144.968 199.6 144.948 201.497 144.954 199.601C144.959 197.704 144.968 199.6 144.945 197.705C144.923 195.81 144.959 197.704 144.916 195.817C144.872 193.915 144.923 195.81 144.858 193.916C144.793 192.022 144.872 193.915 144.778 192.022C144.685 190.129 144.968 178.778 144.671 190.13C144.382 201.488 144.341 203.379 144.179 214.733C144.024 226.094 144.193 214.733 144.362 212.852Z" stroke="black" stroke-width="0.4"></path>
<path d="M150.64 226.539C150.976 224.568 150.655 226.539 150.962 224.568C151.283 222.597 150.976 224.568 151.269 222.598C151.555 220.621 151.283 222.597 151.541 220.622C151.813 218.645 151.555 220.621 151.799 218.646C152.035 216.664 151.813 218.645 152.027 216.657C152.235 214.676 152.035 216.664 152.221 214.676C152.422 212.688 152.235 214.676 152.408 212.689C152.566 210.702 152.422 212.688 152.559 210.695C152.703 208.709 152.566 210.702 152.689 208.71C152.804 206.725 152.703 208.709 152.797 206.718C152.877 204.727 152.797 206.718 152.87 204.72C152.936 202.73 154.212 190.842 152.922 202.73C151.632 214.619 151.431 216.592 150.29 228.497C149.15 240.401 150.304 228.496 150.64 226.539Z" stroke="black" stroke-width="0.4"></path>
<path d="M156.572 237.535C157.054 235.495 156.586 237.535 157.04 235.496C157.486 233.45 157.054 235.495 157.472 233.45C157.897 231.398 157.486 233.45 157.889 231.391C158.286 229.34 157.897 231.398 158.272 229.341C158.64 227.276 158.286 229.34 158.632 227.269C158.979 225.213 158.646 227.269 158.964 225.199C159.29 223.136 158.979 225.213 159.276 223.137C159.572 221.06 159.29 223.136 159.558 221.061C159.827 218.986 159.572 221.06 159.819 218.979C160.059 216.905 159.827 218.986 160.045 216.891C160.263 214.81 160.052 216.898 160.249 214.811C160.44 212.731 162.512 200.342 160.432 212.725C158.353 225.107 158.013 227.17 156.09 239.576C154.153 251.981 156.098 239.582 156.572 237.535Z" stroke="black" stroke-width="0.4"></path>
<path d="M163.493 242.944C164.029 240.817 163.501 242.951 164.022 240.81C164.536 238.677 164.029 240.817 164.521 238.678C165.014 236.538 164.536 238.677 165 236.539C165.457 234.393 165.014 236.538 165.45 234.386C165.885 232.235 165.457 234.393 165.871 232.235C166.278 230.085 165.885 232.235 166.271 230.078C166.649 227.914 166.278 230.085 166.635 227.914C166.986 225.751 166.649 227.914 166.978 225.745C167.307 223.575 166.986 225.751 167.293 223.576C167.593 221.408 167.307 223.575 167.579 221.394C167.851 219.227 167.593 221.408 167.844 219.22C168.087 217.039 170.523 204.114 168.073 217.04C165.623 229.966 165.23 232.116 162.937 245.064C160.643 258.013 162.944 245.071 163.493 242.944Z" stroke="black" stroke-width="0.4"></path>
<path d="M172.187 241.032C172.712 238.8 172.208 241.039 172.698 238.8C173.187 236.562 172.712 238.8 173.165 236.555C173.633 234.311 173.179 236.555 173.619 234.311C174.058 232.053 173.633 234.311 174.036 232.047C174.447 229.79 174.058 232.053 174.433 229.79C174.808 227.528 174.447 229.79 174.794 227.528C175.148 225.259 174.808 227.528 175.133 225.259C175.452 222.984 175.148 225.259 175.437 222.985C175.734 220.703 175.452 222.984 175.72 220.704C175.988 218.424 175.734 220.704 175.974 218.424C176.214 216.145 175.988 218.424 176.2 216.145C176.405 213.86 178.656 200.297 176.391 213.86C174.118 227.417 173.757 229.679 171.655 243.272C169.553 256.851 171.67 243.272 172.187 241.032Z" stroke="black" stroke-width="0.4"></path>
<path d="M182.225 231.716C182.625 229.353 182.239 231.716 182.611 229.354C182.983 226.992 182.625 229.353 182.961 226.986C183.312 224.618 182.983 226.992 183.297 224.618C183.612 222.244 183.312 224.618 183.598 222.245C183.877 219.865 183.612 222.244 183.863 219.865C184.121 217.479 183.877 219.865 184.107 217.48C184.329 215.102 184.121 217.479 184.322 215.095C184.509 212.711 184.329 215.102 184.495 212.712C184.66 210.322 184.509 212.711 184.646 210.322C184.783 207.933 184.66 210.322 184.769 207.934C184.871 205.539 184.783 207.933 184.857 205.539C184.93 203.145 186.443 188.879 184.916 203.146C183.39 217.412 183.153 219.791 181.804 234.072C180.455 248.354 181.818 234.072 182.225 231.716Z" stroke="black" stroke-width="0.4"></path>
<path d="M192.198 216.784C192.424 214.3 192.212 216.784 192.403 214.294C192.586 211.811 192.424 214.3 192.572 211.812C192.727 209.316 192.586 211.811 192.713 209.317C192.833 206.829 192.727 209.316 192.818 206.83C192.91 204.343 192.833 206.829 192.896 204.343C192.959 201.844 192.91 204.343 192.944 201.844C192.972 199.353 192.959 201.844 192.958 199.353C192.957 196.863 192.972 199.353 192.943 196.863C192.907 194.367 192.957 196.863 192.893 194.368C192.828 191.872 192.907 194.367 192.814 191.873C192.722 189.378 192.828 191.872 192.707 189.379C192.58 186.893 192.93 171.952 192.565 186.893C192.201 201.834 192.152 204.32 191.972 219.269C191.785 234.211 191.986 219.268 192.198 216.784Z" stroke="black" stroke-width="0.4"></path>
<path d="M200.956 199.843C200.958 197.246 200.97 199.842 200.944 197.247C200.919 194.651 200.958 197.246 200.905 194.651C200.844 192.064 200.919 194.651 200.83 192.064C200.734 189.471 200.844 192.064 200.72 189.472C200.595 186.879 200.734 189.471 200.581 186.88C200.422 184.296 200.595 186.879 200.407 184.296C200.22 181.713 200.422 184.296 200.206 181.713C199.982 179.125 200.22 181.713 199.968 179.125C199.71 176.544 199.982 179.125 199.696 176.545C199.416 173.972 199.71 176.544 199.395 173.98C199.08 171.401 199.416 173.972 199.066 171.402C198.716 168.831 197.766 153.319 198.695 168.839C199.631 184.351 199.805 186.935 200.931 202.433C202.065 217.939 200.953 202.44 200.956 199.843Z" stroke="black" stroke-width="0.4"></path>
<path d="M208.497 185.405C208.327 182.715 208.525 185.404 208.313 182.716C208.108 180.034 208.327 182.715 208.087 180.042C207.846 177.355 208.108 180.034 207.832 177.355C207.556 174.676 207.846 177.355 207.535 174.684C207.231 172.006 207.556 174.676 207.216 172.006C206.87 169.329 207.231 172.006 206.849 169.337C206.481 166.668 206.87 169.329 206.46 166.676C206.05 164.009 206.481 166.668 206.036 164.009C205.598 161.357 206.05 164.009 205.577 161.365C205.104 158.706 205.598 161.357 205.083 158.714C204.582 156.071 205.104 158.706 204.568 156.072C204.024 153.43 201.961 137.426 204.003 153.438C206.06 169.449 206.413 172.104 208.66 188.088C210.907 204.072 208.682 188.094 208.497 185.405Z" stroke="black" stroke-width="0.4"></path>
<path d="M215.892 177.602C215.62 174.831 215.913 177.608 215.606 174.831C215.298 172.054 215.62 174.831 215.284 172.055C214.941 169.286 215.298 172.054 214.927 169.286C214.542 166.519 214.941 169.286 214.528 166.519C214.122 163.76 214.542 166.519 214.107 163.76C213.659 161.002 214.122 163.76 213.638 161.01C213.161 158.253 213.659 161.002 213.14 158.261C212.629 155.512 213.161 158.253 212.614 155.512C212.061 152.779 212.629 155.512 212.047 152.78C211.472 150.054 212.061 152.779 211.458 150.055C210.841 147.331 211.472 150.054 210.82 147.338C210.167 144.623 207.484 128.095 210.153 144.623C212.815 161.144 213.277 163.902 216.15 180.388C219.016 196.881 216.164 180.387 215.892 177.602Z" stroke="black" stroke-width="0.4"></path>
<path d="M224.065 179.076C223.81 176.198 224.079 179.075 223.789 176.192C223.506 173.315 223.81 176.198 223.485 173.322C223.16 170.447 223.506 173.315 223.146 170.447C222.778 167.573 223.16 170.447 222.757 167.581C222.369 164.715 222.778 167.573 222.348 164.723C221.917 161.858 222.369 164.715 221.903 161.858C221.43 159.009 221.917 161.858 221.416 159.009C220.907 156.154 221.43 159.009 220.886 156.162C220.35 153.322 220.907 156.154 220.336 153.323C219.765 150.491 220.35 153.322 219.744 150.499C219.13 147.669 219.765 150.491 219.116 147.669C218.467 144.847 215.856 127.716 218.446 144.855C221.045 162.001 221.496 164.844 224.298 181.962C227.1 199.065 224.319 181.954 224.065 179.076Z" stroke="black" stroke-width="0.4"></path>
<path d="M232.784 190.267C232.674 187.278 232.798 190.266 232.646 187.279C232.494 184.291 232.674 187.278 232.479 184.291C232.292 181.312 232.494 184.291 232.271 181.306C232.048 178.321 232.292 181.312 232.027 178.328C231.762 175.345 232.048 178.321 231.748 175.345C231.447 172.37 231.762 175.345 231.433 172.37C231.091 169.396 231.447 172.37 231.07 169.404C230.699 166.431 231.091 169.396 230.678 166.439C230.272 163.474 230.699 166.431 230.258 163.475C229.802 160.519 230.272 163.474 229.788 160.519C229.298 157.571 229.802 160.519 229.284 157.572C228.765 154.625 226.942 136.78 228.737 154.626C230.545 172.472 230.852 175.44 232.879 193.256C234.899 211.08 232.893 193.256 232.784 190.267Z" stroke="black" stroke-width="0.4"></path>
<path d="M240.763 209.167C240.883 206.078 240.784 209.173 240.869 206.078C240.947 202.991 240.883 206.078 240.933 202.991C240.975 199.898 240.947 202.991 240.961 199.898C240.961 196.806 240.975 199.898 240.947 196.807C240.911 193.709 240.961 196.806 240.89 193.717C240.819 190.628 240.911 193.709 240.798 190.621C240.692 187.54 240.819 190.628 240.671 187.534C240.529 184.447 240.692 187.54 240.501 184.448C240.317 181.362 240.529 184.447 240.303 181.363C240.077 178.278 240.317 181.362 240.056 178.286C239.794 175.196 240.077 178.278 239.773 175.204C239.47 172.13 239.024 153.601 239.448 172.123C239.879 190.653 239.971 193.734 240.628 212.256C241.285 230.778 240.642 212.256 240.763 209.167Z" stroke="black" stroke-width="0.4"></path>
<path d="M246.942 231.489C247.335 228.327 246.963 231.495 247.321 228.327C247.686 225.152 247.335 228.327 247.658 225.153C247.981 221.98 247.679 225.145 247.959 221.973C248.246 218.794 247.981 221.98 248.225 218.787C248.469 215.609 248.246 218.794 248.441 215.61C248.643 212.419 248.469 215.609 248.629 212.42C248.788 209.231 248.643 212.419 248.767 209.238C248.891 206.043 248.788 209.231 248.877 206.044C248.951 202.857 248.891 206.043 248.93 202.851C248.976 199.666 248.958 202.85 248.955 199.659C248.958 196.475 248.976 199.665 248.937 196.469C248.905 193.279 250.096 174.184 248.884 193.273C247.672 212.375 247.491 215.544 246.52 234.652C245.548 253.76 246.541 234.658 246.942 231.489Z" stroke="black" stroke-width="0.4"></path>
<path d="M251.713 251.758C252.367 248.538 251.734 251.765 252.345 248.532C252.956 245.299 252.367 248.538 252.942 245.299C253.509 242.053 252.956 245.299 253.495 242.054C254.027 238.802 253.509 242.053 253.999 238.803C254.496 235.546 254.027 238.802 254.474 235.539C254.929 232.283 254.496 235.546 254.907 232.277C255.312 229.015 254.929 232.283 255.29 229.009C255.659 225.742 255.312 229.015 255.645 225.742C255.971 222.462 255.659 225.742 255.95 222.456C256.241 219.184 255.971 222.462 256.219 219.178C256.46 215.901 256.241 219.184 256.439 215.895C256.645 212.612 259.327 193.063 256.63 212.612C253.927 232.155 253.501 235.41 251.039 254.987C248.583 274.556 251.067 254.986 251.713 251.758Z" stroke="black" stroke-width="0.4"></path>
<path d="M256.955 264.915C257.776 261.618 256.976 264.907 257.754 261.612C258.525 258.31 257.775 261.618 258.504 258.303C259.239 254.995 258.525 258.31 259.218 254.989C259.91 251.668 259.239 254.995 259.896 251.669C260.539 248.342 259.91 251.668 260.517 248.336C261.132 244.997 260.539 248.342 261.117 244.997C261.682 241.652 261.131 244.997 261.66 241.646C262.182 238.303 261.682 241.652 262.161 238.296C262.647 234.947 262.182 238.303 262.626 234.941C263.069 231.579 262.654 234.94 263.048 231.573C263.449 228.212 263.069 231.579 263.427 228.206C263.786 224.833 267.422 204.834 263.764 224.827C260.114 244.826 259.521 248.158 256.119 268.199C252.711 288.232 256.134 268.198 256.955 264.915Z" stroke="black" stroke-width="0.4"></path>
<path d="M264.551 267.506C265.397 264.123 264.572 267.512 265.375 264.117C266.186 260.728 265.397 264.123 266.164 260.722C266.925 257.314 266.186 260.728 266.903 257.307C267.628 253.893 266.925 257.314 267.606 253.887C268.288 250.461 267.628 253.893 268.267 250.454C268.906 247.029 268.288 250.461 268.885 247.023C269.474 243.578 268.899 247.022 269.453 243.586C270.007 240.135 269.474 243.578 269.985 240.129C270.489 236.673 270.007 240.135 270.468 236.667C270.929 233.212 270.489 236.673 270.908 233.206C271.334 229.746 270.929 233.212 271.312 229.739C271.689 226.274 275.482 205.696 271.667 226.267C267.853 246.839 267.235 250.27 263.676 270.889C260.118 291.509 263.698 270.896 264.551 267.506Z" stroke="black" stroke-width="0.4"></path>
<path d="M274.838 258.45C275.574 254.937 274.86 258.456 275.552 254.93C276.252 251.411 275.574 254.937 276.231 251.405C276.874 247.873 276.252 251.411 276.852 247.867C277.459 244.33 276.874 247.873 277.431 244.331C277.996 240.781 277.459 244.33 277.974 240.774C278.482 237.226 277.996 240.781 278.461 237.22C278.94 233.659 278.489 237.219 278.911 233.66C279.341 230.093 278.94 233.659 279.319 230.087C279.706 226.522 279.341 230.094 279.678 226.523C280.022 222.945 279.706 226.522 279.994 222.946C280.288 219.363 280.022 222.945 280.26 219.364C280.512 215.783 283.587 194.48 280.491 215.776C277.402 237.08 276.908 240.627 274.081 261.957C271.255 283.301 274.103 261.963 274.838 258.45Z" stroke="black" stroke-width="0.4"></path>
<path d="M286.258 239.301C286.755 235.648 286.286 239.3 286.734 235.641C287.188 231.975 286.755 235.648 287.16 231.976C287.564 228.304 287.188 231.975 287.55 228.305C287.905 224.627 287.564 228.304 287.877 224.628C288.189 220.953 287.905 224.627 288.175 220.953C288.438 217.272 288.189 220.953 288.416 217.266C288.637 213.586 288.438 217.272 288.615 213.58C288.793 209.902 288.637 213.586 288.772 209.895C288.9 206.212 288.793 209.902 288.879 206.205C288.964 202.523 288.9 206.212 288.943 202.517C288.979 198.83 288.964 202.523 288.951 198.831C288.951 195.137 290.536 173.072 288.923 195.138C287.317 217.197 287.076 220.871 285.74 242.949C284.403 265.027 285.761 242.955 286.258 239.301Z" stroke="black" stroke-width="0.4"></path>
<path d="M296.588 214.374C296.776 210.583 296.616 214.373 296.748 210.584C296.887 206.801 296.776 210.583 296.866 206.794C296.962 203.013 296.887 206.801 296.941 203.006C296.98 199.213 296.962 203.013 296.959 199.221C296.956 195.428 296.98 199.213 296.928 195.429C296.883 191.639 296.956 195.428 296.855 191.64C296.76 187.858 296.883 191.639 296.739 187.851C296.594 184.064 296.767 187.85 296.566 184.065C296.38 180.279 296.595 184.064 296.351 180.28C296.116 176.503 296.38 180.279 296.094 176.496C295.802 172.721 296.116 176.503 295.788 172.722C295.453 168.948 295.126 146.233 295.425 168.949C295.723 191.664 295.804 195.447 296.379 218.16C296.96 240.865 296.407 218.159 296.588 214.374Z" stroke="black" stroke-width="0.4"></path>
<path d="M304.813 189.958C304.694 186.071 304.841 189.957 304.673 186.079C304.504 182.186 304.694 186.071 304.483 182.194C304.265 178.31 304.504 182.186 304.243 178.304C303.976 174.429 304.271 178.303 303.954 174.422C303.644 170.549 303.976 174.429 303.616 170.55C303.264 166.677 303.644 170.549 303.235 166.678C302.827 162.808 303.264 166.677 302.806 162.816C302.348 158.954 302.827 162.808 302.319 158.955C301.819 155.095 302.348 158.954 301.798 155.103C301.241 151.259 301.819 155.095 301.22 151.253C300.621 147.41 301.248 151.252 300.6 147.418C299.945 143.578 297.768 120.368 299.924 143.585C302.079 166.803 302.459 170.66 304.904 193.847C307.356 217.04 304.932 193.846 304.813 189.958Z" stroke="black" stroke-width="0.4"></path>
<path d="M311.829 172.581C311.495 168.602 311.858 172.58 311.474 168.61C311.09 164.64 311.495 168.602 311.061 164.641C310.628 160.679 311.082 164.633 310.607 160.673C310.117 156.714 310.635 160.672 310.096 156.721C309.564 152.763 310.117 156.714 309.543 152.771C308.962 148.822 309.564 152.763 308.933 148.823C308.303 144.882 308.962 148.822 308.282 144.89C307.602 140.958 308.303 144.882 307.574 140.959C306.845 137.036 307.602 140.958 306.824 137.044C306.046 133.13 306.845 137.036 306.025 133.138C305.19 129.24 306.046 133.13 305.162 129.241C304.293 125.351 300.785 101.692 304.264 125.352C307.758 149.012 308.36 152.939 312.143 176.554C315.925 200.168 312.164 176.56 311.829 172.581Z" stroke="black" stroke-width="0.4"></path>
<path d="M319.368 167.129C318.959 163.054 319.389 167.121 318.938 163.061C318.48 158.995 318.959 163.054 318.459 159.002C317.952 154.945 318.48 158.995 317.924 154.945C317.374 150.889 317.952 154.945 317.353 150.897C316.74 146.85 317.374 150.889 316.719 146.857C316.064 142.826 316.74 146.85 316.036 142.827C315.339 138.797 316.064 142.826 315.311 138.798C314.557 134.784 315.339 138.797 314.529 134.784C313.726 130.779 314.557 134.783 313.698 130.78C312.846 126.784 313.726 130.779 312.811 126.792C311.91 122.804 312.846 126.784 311.889 122.812C310.925 118.833 306.981 94.6441 310.904 118.841C314.833 143.031 315.509 147.055 319.741 171.199C323.974 195.343 319.77 171.198 319.368 167.129Z" stroke="black" stroke-width="0.4"></path>
<path d="M328.117 175.694C327.825 171.522 328.146 175.693 327.797 171.523C327.456 167.347 327.825 171.522 327.427 167.348C327.022 163.18 327.456 167.347 326.994 163.181C326.547 159.015 327.022 163.18 326.526 159.023C326.015 154.866 326.547 159.015 325.987 154.867C325.434 150.711 326.015 154.866 325.413 150.719C324.797 146.573 325.434 150.711 324.776 146.581C324.117 142.436 324.797 146.573 324.096 142.444C323.381 138.315 324.117 142.436 323.36 138.323C322.596 134.203 323.381 138.315 322.568 134.204C321.754 130.093 322.596 134.203 321.733 130.101C320.864 126.006 317.512 101.124 320.843 126.014C324.167 150.896 324.748 155.037 328.388 179.873C332.029 204.724 328.416 179.872 328.117 175.694Z" stroke="black" stroke-width="0.4"></path>
<path d="M336.951 197.034C336.924 192.74 336.972 197.026 336.896 192.741C336.812 188.449 336.924 192.74 336.784 188.45C336.651 184.167 336.812 188.449 336.623 184.168C336.433 179.887 336.651 184.167 336.405 179.888C336.159 175.609 336.426 179.88 336.131 175.61C335.835 171.325 336.159 175.609 335.807 171.326C335.455 167.058 335.835 171.325 335.427 167.059C335.025 162.785 335.462 167.05 335.004 162.793C334.546 158.521 335.025 162.785 334.525 158.529C334.011 154.273 334.546 158.521 333.983 154.274C333.42 150.027 334.011 154.273 333.391 150.028C332.772 145.783 330.978 120.14 332.751 145.79C334.53 171.434 334.86 175.696 336.95 201.314C339.047 226.939 336.978 201.313 336.951 197.034Z" stroke="black" stroke-width="0.4"></path>
<path d="M343.919 226.468C344.257 222.091 343.948 226.467 344.229 222.092C344.503 217.71 344.257 222.091 344.482 217.704C344.713 213.323 344.503 217.71 344.685 213.324C344.853 208.939 344.713 213.323 344.824 208.94C344.95 204.556 344.853 208.939 344.914 204.55C344.983 200.168 344.942 204.549 344.962 200.162C344.967 195.775 344.983 200.168 344.938 195.776C344.894 191.384 344.967 195.775 344.865 191.385C344.764 186.994 344.894 191.384 344.743 187.002C344.585 182.614 344.764 186.994 344.557 182.615C344.35 178.235 344.585 182.614 344.322 178.236C344.051 173.852 344.415 147.555 344.03 173.86C343.638 200.158 343.605 204.531 343.546 230.839C343.494 257.139 343.581 230.845 343.919 226.468Z" stroke="black" stroke-width="0.4"></path>
<path d="M348.34 256.917C349.058 252.484 348.361 256.923 349.022 252.478C349.691 248.04 349.058 252.484 349.655 248.034C350.259 243.592 349.691 248.04 350.238 243.585C350.786 239.13 350.266 243.584 350.757 239.131C351.255 234.671 350.785 239.13 351.234 234.665C351.667 230.199 351.255 234.671 351.639 230.2C352.023 225.73 351.667 230.199 351.995 225.717C352.322 221.248 352.023 225.73 352.294 221.249C352.565 216.768 352.322 221.248 352.543 216.762C352.757 212.283 352.565 216.768 352.729 212.284C352.886 207.793 352.757 212.283 352.858 207.794C352.966 203.311 355.57 176.534 352.93 203.305C350.305 230.076 349.892 234.534 347.593 261.336C345.287 288.145 347.614 261.342 348.34 256.917Z" stroke="black" stroke-width="0.4"></path>
<path d="M351.835 280.824C352.849 276.353 351.871 280.83 352.828 276.347C353.784 271.863 352.849 276.353 353.756 271.85C354.656 267.355 353.784 271.863 354.634 267.349C355.477 262.841 354.656 267.355 355.455 262.835C356.241 258.315 355.477 262.841 356.213 258.316C356.942 253.784 356.241 258.315 356.92 253.778C357.599 249.24 356.942 253.784 357.571 249.241C358.193 244.692 357.599 249.24 358.165 244.693C358.723 240.138 358.193 244.692 358.702 240.132C359.21 235.572 358.723 240.138 359.175 235.566C359.627 231.009 359.21 235.572 359.605 231.002C359.993 226.425 364.36 199.283 359.965 226.426C355.562 253.577 354.861 258.093 350.793 285.296C346.732 312.491 350.829 285.302 351.835 280.824Z" stroke="black" stroke-width="0.4"></path>
<path d="M357.309 292.282C358.469 287.742 357.337 292.295 358.433 287.736C359.536 283.184 358.469 287.742 359.508 283.171C360.554 278.607 359.543 283.177 360.525 278.594C361.514 274.018 360.554 278.607 361.485 274.005C362.417 269.416 361.514 274.018 362.382 269.41C363.263 264.802 362.417 269.416 363.228 264.797C364.046 260.184 363.263 264.802 364.01 260.178C364.771 255.553 364.046 260.184 364.75 255.546C365.44 250.91 364.771 255.553 365.411 250.911C366.058 246.261 365.44 250.91 366.03 246.262C366.613 241.608 366.058 246.261 366.585 241.609C367.104 236.95 372.311 209.333 367.083 236.943C361.854 264.554 361.007 269.153 356.12 296.823C351.233 324.492 356.149 296.822 357.309 292.282Z" stroke="black" stroke-width="0.4"></path>
<path d="M366.538 288.243C367.644 283.585 366.573 288.249 367.623 283.579C368.672 278.909 367.651 283.578 368.637 278.903C369.629 274.22 368.672 278.909 369.6 274.207C370.536 269.512 369.629 274.22 370.507 269.513C371.379 264.8 370.536 269.512 371.35 264.801C372.164 260.075 371.379 264.8 372.136 260.076C372.894 255.352 372.164 260.075 372.858 255.346C373.559 250.61 372.894 255.352 373.53 250.596C374.167 245.855 373.559 250.61 374.138 245.856C374.718 241.103 374.167 245.855 374.69 241.104C375.212 236.339 374.718 241.103 375.177 236.333C375.636 231.577 380.495 203.293 375.607 231.564C370.72 259.848 369.941 264.552 365.41 292.895C360.871 321.232 365.431 292.902 366.538 288.243Z" stroke="black" stroke-width="0.4"></path>
<path d="M378.72 269.054C379.588 264.242 378.748 269.053 379.56 264.243C380.37 259.418 379.588 264.242 380.335 259.412C381.082 254.582 380.37 259.418 381.06 254.576C381.743 249.741 381.082 254.582 381.708 249.736C382.341 244.896 381.743 249.741 382.312 244.882C382.874 240.031 382.348 244.888 382.846 240.032C383.351 235.168 382.874 240.031 383.323 235.169C383.764 230.3 383.351 235.168 383.743 230.294C384.127 225.427 383.771 230.293 384.092 225.421C384.42 220.542 384.12 225.42 384.391 220.543C384.648 215.666 384.42 220.542 384.62 215.667C384.82 210.779 388.194 181.682 384.792 210.779C381.39 239.876 380.863 244.72 377.824 273.854C374.791 302.995 377.859 273.86 378.72 269.054Z" stroke="black" stroke-width="0.4"></path>
<path d="M391.016 238.739C391.511 233.784 391.052 238.745 391.475 233.778C391.913 228.81 391.511 233.784 391.878 228.804C392.238 223.832 391.906 228.803 392.209 223.833C392.52 218.856 392.238 223.832 392.484 218.85C392.723 213.875 392.52 218.856 392.695 213.876C392.878 208.889 392.73 213.868 392.842 208.883C392.961 203.905 392.878 208.889 392.933 203.906C392.988 198.909 392.961 203.905 392.96 198.91C392.951 193.922 392.988 198.909 392.916 193.93C392.851 188.945 392.951 193.922 392.823 188.945C392.694 183.955 392.851 188.945 392.659 183.963C392.466 178.982 393.52 149.102 392.431 178.976C391.355 208.849 391.207 213.814 390.5 243.703C389.786 273.585 390.528 243.702 391.016 238.739Z" stroke="black" stroke-width="0.4"></path>
<path d="M400.924 204.608C400.989 199.511 400.959 204.6 400.961 199.512C400.956 194.432 400.989 199.511 400.928 194.433C400.867 189.341 400.956 194.432 400.838 189.342C400.713 184.26 400.867 189.341 400.671 184.261C400.489 179.18 400.706 184.253 400.454 179.174C400.202 174.096 400.489 179.18 400.173 174.097C399.858 169.028 400.201 174.096 399.822 169.022C399.45 163.955 399.85 169.021 399.408 163.956C398.972 158.884 399.443 163.948 398.937 158.892C398.437 153.829 398.972 158.884 398.402 153.838C397.832 148.777 398.437 153.829 397.804 148.778C397.171 143.741 395.63 113.286 397.143 143.742C398.648 174.192 398.936 179.262 400.83 209.691C402.723 240.12 400.858 209.69 400.924 204.608Z" stroke="black" stroke-width="0.4"></path>
<path d="M408.263 175.425C407.965 170.249 408.299 175.417 407.93 170.243C407.568 165.077 407.972 170.242 407.54 165.078C407.115 159.906 407.568 165.077 407.073 159.908C406.584 154.745 407.108 159.899 406.556 154.746C405.99 149.594 406.584 154.745 405.961 149.595C405.346 144.451 405.997 149.586 405.311 144.445C404.625 139.318 405.339 144.444 404.589 139.312C403.847 134.187 404.625 139.304 403.812 134.195C403 129.072 403.84 134.18 402.971 129.073C402.095 123.959 402.992 129.065 402.06 123.968C401.121 118.863 402.095 123.959 401.086 118.872C400.076 113.784 396.328 82.9229 400.055 113.792C403.775 144.653 404.426 149.789 408.533 180.602C412.641 211.415 408.561 180.601 408.263 175.425Z" stroke="black" stroke-width="0.4"></path>
<path d="M415.028 158.962C414.522 153.701 415.056 158.961 414.487 153.71C413.917 148.444 414.522 153.701 413.882 148.452C413.249 143.21 413.917 148.444 413.221 143.211C412.517 137.971 413.249 143.21 412.482 137.98C411.715 132.749 412.517 137.971 411.687 132.75C410.857 127.529 411.715 132.749 410.822 127.537C409.928 122.325 410.857 127.529 409.893 122.333C408.929 117.138 409.928 122.325 408.901 117.139C407.874 111.952 408.929 117.138 407.839 111.961C406.756 106.79 407.874 111.952 406.721 106.799C405.56 101.638 406.748 106.784 405.532 101.639C404.308 96.5022 399.3 65.2177 404.28 96.5032C409.26 127.803 410.125 133.002 415.492 164.224C420.866 195.454 415.527 164.23 415.028 158.962Z" stroke="black" stroke-width="0.4"></path>
<path d="M423.148 159.922C422.653 154.561 423.184 159.927 422.624 154.562C422.066 149.211 422.653 154.561 422.03 149.22C421.408 143.864 422.066 149.211 421.373 143.872C420.673 138.526 421.408 143.864 420.644 138.527C419.888 133.197 420.673 138.526 419.853 133.205C419.026 127.878 419.888 133.197 418.991 127.886C418.102 122.582 419.026 127.878 418.073 122.583C417.113 117.281 418.109 122.575 417.078 117.289C416.054 111.997 417.113 117.281 416.019 112.005C414.933 106.736 416.054 111.997 414.898 106.744C413.74 101.478 414.933 106.736 413.713 101.493C412.485 96.2426 407.513 64.3484 412.464 96.2504C417.402 128.153 418.263 133.458 423.608 165.29C428.947 197.129 423.636 165.289 423.148 159.922Z" stroke="black" stroke-width="0.4"></path>
<path d="M432.481 178.895C432.222 173.414 432.516 178.887 432.194 173.415C431.864 167.936 432.222 173.414 431.829 167.944C431.436 162.474 431.864 167.936 431.408 162.475C430.944 157.008 431.443 162.467 430.916 157.009C430.381 151.544 430.944 157.008 430.346 151.552C429.748 146.096 430.381 151.544 429.713 146.105C429.052 140.658 429.749 146.096 429.017 140.666C428.286 135.222 429.052 140.658 428.25 135.231C427.448 129.803 428.286 135.222 427.413 129.811C426.548 124.393 427.448 129.803 426.513 124.402C425.584 118.993 426.548 124.393 425.549 119.001C424.543 113.602 420.931 80.9249 424.508 113.61C428.086 146.295 428.711 151.735 432.704 184.371C436.683 217.007 432.733 184.37 432.481 178.895Z" stroke="black" stroke-width="0.4"></path>
<path d="M440.778 212.005C440.933 206.418 440.813 211.997 440.905 206.419C440.989 200.833 440.933 206.418 440.96 200.834C440.974 195.252 440.989 200.833 440.938 195.246C440.881 189.665 440.974 195.252 440.853 189.666C440.732 184.081 440.888 189.658 440.689 184.082C440.498 178.5 440.732 184.081 440.469 178.501C440.207 172.92 440.504 178.492 440.172 172.928C439.839 167.35 440.207 172.92 439.811 167.351C439.407 161.776 439.846 167.343 439.372 161.784C438.905 156.218 439.407 161.776 438.87 156.226C438.332 150.662 438.905 156.218 438.297 150.671C437.688 145.109 436.511 111.655 437.653 145.117C438.802 178.572 439.022 184.14 440.588 217.587C442.153 251.021 440.623 217.579 440.778 212.005Z" stroke="black" stroke-width="0.4"></path>
<path d="M445.975 251.484C446.623 245.837 446.011 251.489 446.588 245.831C447.165 240.172 446.623 245.837 447.136 240.173C447.635 234.51 447.165 240.172 447.607 234.511C448.042 228.843 447.635 234.51 448.007 228.837C448.378 223.164 448.042 228.843 448.335 223.165C448.636 217.481 448.378 223.164 448.593 217.482C448.822 211.8 448.636 217.481 448.794 211.801C448.946 206.114 448.822 211.8 448.903 206.116C448.991 200.438 448.946 206.114 448.956 200.433C448.966 194.751 448.991 200.438 448.93 194.745C448.87 189.066 448.966 194.751 448.841 189.067C448.71 183.376 450.449 149.348 448.674 183.384C446.907 217.413 446.641 223.075 445.292 257.125C443.942 291.175 445.327 257.131 445.975 251.484Z" stroke="black" stroke-width="0.4"></path>
<path d="M448.503 287.594C449.603 281.917 448.539 287.6 449.567 281.911C450.589 276.216 449.603 281.917 450.553 276.21C451.518 270.503 450.589 276.216 451.482 270.497C452.368 264.785 451.518 270.503 452.333 264.779C453.148 259.055 452.368 264.785 453.112 259.05C453.849 253.308 453.141 259.049 453.821 253.309C454.494 247.562 453.849 253.308 454.458 247.556C455.053 241.804 454.494 247.562 455.018 241.798C455.549 236.042 455.053 241.804 455.513 236.036C455.966 230.276 455.549 236.042 455.931 230.27C456.313 224.497 455.973 230.268 456.277 224.492C456.595 218.714 461.011 184.326 456.553 218.716C452.101 253.099 451.392 258.826 447.368 293.265C443.336 327.711 447.403 293.27 448.503 287.594Z" stroke="black" stroke-width="0.4"></path>
<path d="M451.473 311.434C452.868 305.719 451.508 311.44 452.833 305.713C454.164 299.979 452.868 305.719 454.121 299.966C455.375 294.228 454.157 299.972 455.338 294.208C456.528 288.45 455.381 294.221 456.485 288.438C457.595 282.661 456.52 288.443 457.56 282.656C458.599 276.868 457.595 282.661 458.563 276.862C459.524 271.055 458.599 276.868 459.489 271.05C460.379 265.232 459.524 271.055 460.343 265.226C461.169 259.403 460.379 265.232 461.133 259.397C461.881 253.555 461.169 259.403 461.839 253.557C462.522 247.71 461.881 253.555 462.487 247.705C463.078 241.854 469.272 207.128 463.043 241.848C456.827 276.568 455.823 282.347 450.041 317.144C444.253 351.933 450.077 317.15 451.473 311.434Z" stroke="black" stroke-width="0.4"></path>
<path d="M458.292 317.158C459.755 311.355 458.327 317.163 459.726 311.342C461.119 305.528 459.755 311.355 461.083 305.522C462.404 299.682 461.118 305.528 462.368 299.676C463.617 293.825 462.404 299.682 463.582 293.819C464.753 287.948 463.617 293.825 464.724 287.935C465.831 282.06 464.76 287.941 465.788 282.048C466.825 276.161 465.831 282.06 466.782 276.148C467.739 270.243 466.817 276.154 467.704 270.237C468.59 264.32 467.739 270.243 468.554 264.314C469.356 258.386 468.59 264.32 469.32 258.38C470.057 252.447 469.356 258.386 470.022 252.441C470.68 246.489 477.26 211.234 470.645 246.483C464.023 281.74 462.958 287.614 456.785 322.947C450.612 358.281 456.828 322.96 458.292 317.158Z" stroke="black" stroke-width="0.4"></path>
<path d="M469.846 302.964C471.135 297.012 469.882 302.97 471.099 297.006C472.316 291.042 471.135 297.012 472.281 291.037C473.42 285.068 472.316 291.042 473.377 285.056C474.452 279.068 473.427 285.061 474.417 279.063C475.407 273.064 474.452 279.068 475.364 273.052C476.289 267.034 475.413 273.057 476.247 267.036C477.087 261.007 476.289 267.034 477.051 261.001C477.827 254.968 477.087 261.007 477.792 254.962C478.483 248.917 477.827 254.968 478.44 248.918C479.06 242.862 478.483 248.917 479.025 242.856C479.56 236.803 479.06 242.862 479.524 236.797C479.988 230.731 485.457 194.672 479.953 230.726C474.448 266.779 473.564 272.781 468.522 308.896C463.465 345.012 468.557 308.902 469.846 302.964Z" stroke="black" stroke-width="0.4"></path>
<path d="M483.688 271.52C484.582 265.405 483.724 271.526 484.546 265.399C485.369 259.272 484.582 265.405 485.333 259.266C486.078 253.135 485.369 259.272 486.042 253.129C486.709 246.979 486.085 253.128 486.673 246.973C487.261 240.819 486.708 246.979 487.226 240.813C487.743 234.647 487.261 240.819 487.7 234.648C488.146 228.484 487.743 234.647 488.111 228.479C488.465 222.311 488.146 228.484 488.43 222.305C488.713 216.126 488.465 222.311 488.67 216.127C488.883 209.95 488.713 216.126 488.847 209.944C488.981 203.763 488.883 209.95 488.939 203.765C488.996 197.579 492.043 160.641 488.953 197.58C485.856 234.513 485.381 240.664 482.752 277.637C480.116 314.604 482.788 277.643 483.688 271.52Z" stroke="black" stroke-width="0.4"></path>
<path d="M496.031 230.004C496.41 223.736 496.073 230.002 496.374 223.73C496.668 217.452 496.409 223.722 496.633 217.446C496.856 211.169 496.668 217.452 496.82 211.163C496.965 204.883 496.856 211.169 496.93 204.891C496.997 198.606 496.965 204.883 496.955 198.607C496.944 192.318 496.998 198.606 496.909 192.326C496.814 186.04 496.944 192.318 496.778 186.034C496.612 179.764 496.814 186.04 496.577 179.758C496.333 173.483 496.619 179.756 496.29 173.485C495.969 167.206 496.326 173.477 495.926 167.207C495.527 160.938 495.969 167.206 495.485 160.94C495.008 154.68 494.903 117.015 494.966 154.682C495.028 192.348 495.08 198.608 495.609 236.273C496.131 273.93 495.652 236.271 496.031 230.004Z" stroke="black" stroke-width="0.4"></path>
<path d="M504.845 188.735C504.717 182.351 504.887 188.734 504.675 182.352C504.463 175.971 504.717 182.351 504.42 175.972C504.131 169.6 504.463 175.971 504.088 169.602C503.714 163.233 504.131 169.6 503.672 163.234C503.227 156.868 503.714 163.233 503.184 156.869C502.654 150.505 503.227 156.867 502.619 150.514C502.005 144.153 502.654 150.505 501.97 144.161C501.278 137.81 502.005 144.153 501.242 137.818C500.466 131.484 501.278 137.81 500.431 131.493C499.584 125.161 500.466 131.484 499.549 125.169C498.617 118.855 499.584 125.161 498.575 118.856C497.573 112.558 494.354 74.4344 497.531 112.56C500.715 150.692 501.286 157.026 504.936 195.114C508.593 233.209 504.979 195.113 504.845 188.735Z" stroke="black" stroke-width="0.4"></path>
<path d="M511.339 158.436C510.827 151.979 511.382 158.434 510.785 151.981C510.195 145.52 510.827 151.979 510.16 145.528C509.486 139.085 510.195 145.52 509.444 139.086C508.699 132.645 509.486 139.085 508.657 132.646C507.82 126.216 508.692 132.638 507.785 126.224C506.864 119.81 507.82 126.216 506.829 119.818C505.838 113.407 506.864 119.81 505.796 113.408C504.727 107.02 505.838 113.407 504.685 107.022C503.532 100.651 504.727 107.02 503.49 100.653C502.26 94.292 503.532 100.651 502.224 94.3003C500.917 87.9491 502.259 94.292 500.867 87.9579C499.483 81.6306 493.973 43.1608 499.44 81.6321C504.915 120.11 505.856 126.502 511.809 164.907C517.755 203.306 511.852 164.906 511.339 158.436Z" stroke="black" stroke-width="0.4"></path>
<path d="M518.367 147.157C517.71 140.607 518.402 147.149 517.675 140.615C516.941 134.074 517.71 140.607 516.899 134.076C516.087 127.545 516.934 134.067 516.045 127.546C515.142 121.026 516.087 127.545 515.107 121.034C514.126 114.523 515.142 121.026 514.091 114.531C513.033 108.03 514.126 114.523 512.984 108.039C511.855 101.554 513.033 108.03 511.806 101.563C510.593 95.0954 511.855 101.554 510.551 95.0968C509.247 88.6536 510.593 95.0954 509.212 88.6619C507.824 82.2216 509.254 88.6463 507.788 82.2298C506.323 75.8134 507.824 82.2215 506.288 75.8217C504.752 69.4218 498.363 30.4868 504.703 69.4306C511.05 108.381 512.149 114.853 518.981 153.709C525.806 192.572 519.016 153.7 518.367 147.157Z" stroke="black" stroke-width="0.4"></path>
<path d="M527.384 158.366C526.872 151.704 527.426 158.364 526.829 151.706C526.233 145.047 526.872 151.704 526.198 145.055C525.516 138.4 526.233 145.047 525.474 138.415C524.716 131.77 525.516 138.4 524.673 131.771C523.83 125.142 524.716 131.77 523.788 125.158C522.86 118.532 523.83 125.142 522.825 118.54C521.813 111.931 522.86 118.532 521.771 111.947C520.681 105.348 521.813 111.931 520.646 105.356C519.465 98.7812 520.681 105.348 519.423 98.7826C518.172 92.2244 519.465 98.7812 518.129 92.2258C516.794 85.6846 518.172 92.2244 516.759 85.6929C515.332 79.162 509.746 39.499 515.296 79.1703C520.847 118.842 521.809 125.431 527.853 165.029C533.896 204.626 527.895 165.027 527.384 158.366Z" stroke="black" stroke-width="0.4"></path>
<path d="M536.882 190.189C536.769 183.408 536.924 190.188 536.727 183.41C536.522 176.624 536.769 183.408 536.48 176.626C536.197 169.85 536.522 176.624 536.155 169.852C535.781 163.087 536.197 169.85 535.739 163.088C535.287 156.318 535.781 163.087 535.245 156.32C534.708 149.567 535.287 156.318 534.666 149.569C534.052 142.812 534.715 149.56 534.003 142.821C533.297 136.074 534.052 142.812 533.255 136.075C532.471 129.338 533.297 136.074 532.422 129.347C531.547 122.62 532.471 129.338 531.512 122.628C530.553 115.919 531.547 122.62 530.511 115.92C529.474 109.22 526.208 68.6992 529.432 109.222C532.649 149.751 533.227 156.488 536.952 196.972C540.677 237.456 536.994 196.971 536.882 190.189Z" stroke="black" stroke-width="0.4"></path>
<path d="M543.785 235.46C544.229 228.596 543.821 235.466 544.186 228.598C544.551 221.715 544.229 228.596 544.509 221.717C544.782 214.844 544.551 221.715 544.747 214.838C544.928 207.962 544.782 214.844 544.892 207.956C544.996 201.076 544.935 207.955 544.953 201.077C544.972 194.199 544.996 201.076 544.929 194.201C544.87 187.318 544.972 194.199 544.828 187.32C544.676 180.434 544.87 187.319 544.634 180.435C544.39 173.56 544.676 180.434 544.348 173.561C544.034 166.688 544.391 173.559 543.992 166.689C543.579 159.819 544.034 166.688 543.537 159.82C543.046 152.96 543.123 111.716 543.004 152.962C542.878 194.214 542.902 201.077 543.285 242.326C543.675 283.569 543.327 242.325 543.785 235.46Z" stroke="black" stroke-width="0.4"></path>
<path d="M546.654 283.162C547.705 276.263 546.704 283.167 547.662 276.25C548.614 269.341 547.705 276.263 548.578 269.335C549.451 262.406 548.62 269.333 549.401 262.401C550.189 255.461 549.451 262.406 550.146 255.463C550.849 248.512 550.189 255.461 550.799 248.507C551.409 241.552 550.849 248.512 551.367 241.553C551.892 234.588 551.409 241.552 551.849 234.589C552.296 227.619 551.892 234.588 552.247 227.613C552.595 220.646 552.289 227.612 552.559 220.641C552.822 213.663 552.601 220.639 552.779 213.664C552.95 206.682 552.822 213.662 552.907 206.683C553 199.697 556.628 158.02 552.958 199.698C549.288 241.391 548.72 248.33 545.575 290.062C542.423 331.787 545.618 290.061 546.654 283.162Z" stroke="black" stroke-width="0.4"></path>
<path d="M547.687 321.474C549.204 314.559 547.73 321.487 549.161 314.547C550.6 307.613 549.211 314.552 550.557 307.6C551.91 300.655 550.6 307.613 551.861 300.65C553.128 293.68 551.91 300.656 553.085 293.667C554.254 286.686 553.128 293.68 554.218 286.681C555.301 279.688 554.254 286.686 555.258 279.676C556.263 272.665 555.301 279.688 556.213 272.66C557.132 265.638 556.263 272.665 557.082 265.632C557.91 258.607 557.132 265.638 557.867 258.594C558.601 251.55 557.91 258.607 558.559 251.551C559.208 244.496 558.601 251.55 559.166 244.498C559.73 237.432 566.206 195.486 559.687 237.433C553.161 279.373 552.12 286.363 546.127 328.377C540.126 370.397 546.17 328.389 547.687 321.474Z" stroke="black" stroke-width="0.4"></path>
<path d="M551.268 341.07C553.031 334.111 551.311 341.083 552.988 334.099C554.666 327.114 553.031 334.111 554.63 327.108C556.215 320.106 554.666 327.114 556.172 320.093C557.679 313.073 556.215 320.106 557.636 313.06C559.05 306.021 557.679 313.073 559.007 306.022C560.335 298.958 559.05 306.021 560.286 298.953C561.529 291.877 560.335 298.958 561.493 291.872C562.636 284.785 561.529 291.877 562.601 284.779C563.666 277.675 562.643 284.778 563.616 277.669C564.596 270.553 563.666 277.675 564.546 270.548C565.433 263.428 564.596 270.553 565.391 263.416C566.186 256.278 574.108 213.972 566.143 256.279C558.178 298.572 556.892 305.621 549.461 348.016C542.017 390.412 549.504 348.029 551.268 341.07Z" stroke="black" stroke-width="0.4"></path>
<path d="M560.492 337.095C562.216 330.018 560.535 337.108 562.166 330.012C563.797 322.916 562.216 330.018 563.754 322.904C565.293 315.79 563.797 322.916 565.25 315.777C566.696 308.645 565.293 315.79 566.653 308.632C568.014 301.489 566.696 308.645 567.971 301.477C569.246 294.308 568.021 301.482 569.196 294.303C570.379 287.116 569.246 294.308 570.336 287.103C571.426 279.913 570.379 287.116 571.383 279.9C572.388 272.698 571.426 279.913 572.346 272.686C573.258 265.466 572.381 272.692 573.208 265.461C574.035 258.23 573.258 265.466 573.992 258.217C574.72 250.975 582.308 208.002 574.678 250.977C567.047 293.938 565.821 301.098 558.739 344.16C551.643 387.223 558.782 344.173 560.492 337.095Z" stroke="black" stroke-width="0.4"></path>
<path d="M574.557 309.882C575.935 302.632 574.606 309.888 575.892 302.62C577.178 295.352 575.935 302.632 577.128 295.346C578.329 288.067 577.178 295.352 578.286 288.054C579.387 280.765 578.329 288.067 579.344 280.752C580.352 273.444 579.387 280.765 580.317 273.438C581.233 266.112 580.352 273.444 581.19 266.113C582.021 258.776 581.233 266.112 581.971 258.771C582.71 251.43 582.021 258.776 582.674 251.424C583.313 244.072 582.71 251.43 583.271 244.073C583.824 236.71 583.313 244.072 583.782 236.712C584.25 229.337 583.824 236.71 584.201 229.332C584.577 221.968 590.06 178.069 584.528 221.963C578.995 265.856 578.121 273.167 573.135 317.119C568.157 361.079 573.178 317.132 574.557 309.882Z" stroke="black" stroke-width="0.4"></path>
<path d="M589.339 265.225C590.152 257.789 589.388 265.231 590.116 257.784C590.837 250.344 590.152 257.789 590.794 250.331C591.43 242.881 590.844 250.337 591.38 242.875C591.924 235.42 591.43 242.88 591.874 235.415C592.325 227.942 591.924 235.42 592.282 227.944C592.634 220.474 592.325 227.942 592.585 220.469C592.852 213.002 592.634 220.474 592.802 212.997C592.97 205.52 592.845 212.996 592.927 205.521C593.003 198.04 592.97 205.52 592.953 198.035C592.944 190.557 593.003 198.04 592.888 190.559C592.786 183.076 592.944 190.557 592.73 183.078C592.53 175.6 594.614 130.813 592.487 175.601C590.346 220.39 590.05 227.844 588.469 272.649C586.894 317.461 588.518 272.654 589.339 265.225Z" stroke="black" stroke-width="0.4"></path>
<path d="M600.789 213.791C600.968 206.215 600.839 213.797 600.925 206.216C601.005 198.643 600.968 206.215 600.955 198.637C600.942 191.06 601.005 198.643 600.9 191.062C600.795 183.481 600.949 191.053 600.753 183.482C600.549 175.905 600.795 183.481 600.507 175.906C600.204 168.332 600.549 175.904 600.162 168.333C599.775 160.762 600.211 168.324 599.732 160.763C599.246 153.195 599.775 160.762 599.197 153.204C598.619 145.646 599.246 153.195 598.576 145.648C597.907 138.1 598.619 145.646 597.858 138.109C597.089 130.565 597.907 138.1 597.047 130.566C596.187 123.032 594.388 77.643 596.137 123.041C597.895 168.446 598.239 175.991 600.561 221.377C602.883 266.748 600.604 221.375 600.789 213.791Z" stroke="black" stroke-width="0.4"></path>
<path d="M608.19 168.673C607.806 160.995 608.239 168.664 607.757 161.004C607.281 153.337 607.806 160.995 607.232 153.346C606.658 145.682 607.281 153.337 606.608 145.69C605.942 138.037 606.658 145.682 605.893 138.045C605.121 130.402 605.942 138.037 605.079 130.404C604.223 122.778 605.128 130.395 604.166 122.78C603.218 115.164 604.223 122.778 603.169 115.173C602.122 107.56 603.218 115.164 602.073 107.569C600.928 99.9742 602.122 107.56 600.879 99.983C599.642 92.3984 600.928 99.9743 599.593 92.4072C598.265 84.8469 599.642 92.3983 598.215 84.8556C596.782 77.306 591.582 31.5734 596.74 77.3216C601.89 123.063 602.795 130.666 608.524 176.345C614.253 222.024 608.573 176.336 608.19 168.673Z" stroke="black" stroke-width="0.4"></path>
<path d="M614.271 141.571C613.552 133.827 614.32 141.563 613.496 133.829C612.685 126.096 613.552 133.827 612.636 126.104C611.727 118.374 612.685 126.096 611.67 118.376C610.662 110.663 611.719 118.367 610.613 110.672C609.507 102.977 610.662 110.663 609.465 102.978C608.253 95.2936 609.514 102.969 608.21 95.2951C606.914 87.6276 608.253 95.2936 606.865 87.6364C605.47 79.9864 606.914 87.6276 605.421 79.9952C603.934 72.3554 605.47 79.9864 603.885 72.3642C602.301 64.7561 603.934 72.3554 602.252 64.7649C600.576 57.167 602.301 64.7561 600.526 57.1758C598.759 49.6023 591.503 3.53696 598.71 49.611C605.917 95.6851 607.164 103.347 614.94 149.324C622.724 195.293 614.99 149.315 614.271 141.571Z" stroke="black" stroke-width="0.4"></path>
<path d="M622.132 139.745C621.396 131.902 622.182 139.736 621.34 131.904C620.498 124.073 621.396 131.902 620.448 124.081C619.515 116.26 620.498 124.073 619.458 116.262C618.426 108.458 619.507 116.253 618.384 108.459C617.246 100.666 618.433 108.451 617.196 100.675C615.96 92.8852 617.246 100.666 615.91 92.8939C614.583 85.1285 615.96 92.8852 614.533 85.1372C613.121 77.3888 614.583 85.1285 613.072 77.3976C611.547 69.6672 613.114 77.382 611.498 69.676C609.882 61.9699 611.547 69.6672 609.833 61.9787C608.118 54.2902 609.874 61.9631 608.069 54.2989C606.256 46.628 598.839 -0.011966 606.214 46.6436C613.596 93.2918 614.867 101.045 622.833 147.595C630.786 194.146 622.876 147.594 622.132 139.745Z" stroke="black" stroke-width="0.4"></path>
<path d="M632.001 164.445C631.565 156.486 632.051 164.436 631.516 156.481C630.981 148.525 631.565 156.472 630.931 148.52C630.297 140.568 630.981 148.525 630.248 140.577C629.515 132.628 630.297 140.568 629.466 132.637C628.627 124.699 629.515 132.628 628.578 124.708C627.648 116.78 628.627 124.699 627.599 116.789C626.57 108.879 627.648 116.78 626.521 108.887C625.393 100.981 626.57 108.879 625.344 100.99C624.111 93.1076 625.393 100.981 624.062 93.1163C622.745 85.2515 624.111 93.1075 622.695 85.2602C621.272 77.406 622.745 85.2514 621.223 77.4148C619.702 69.5782 614.074 22.0914 619.652 69.5869C625.239 117.089 626.21 124.987 632.388 172.413C638.559 219.845 632.438 172.418 632.001 164.445Z" stroke="black" stroke-width="0.4"></path>
<path d="M640.869 210.469C640.995 202.392 640.912 210.468 640.953 202.393C640.987 194.312 640.995 202.392 640.937 194.307C640.879 186.236 640.987 194.312 640.823 186.238C640.659 178.164 640.872 186.229 640.609 178.158C640.346 170.088 640.659 178.164 640.289 170.09C639.927 162.022 640.346 170.088 639.878 162.017C639.41 153.96 639.927 162.022 639.36 153.955C638.794 145.901 639.41 153.96 638.745 145.91C638.072 137.853 638.794 145.901 638.029 137.855C637.258 129.815 638.072 137.853 637.209 129.824C636.338 121.788 637.258 129.815 636.289 121.797C635.327 113.771 633.079 65.4043 635.278 113.78C637.463 162.156 637.881 170.208 640.673 218.549C643.465 266.89 640.729 218.547 640.869 210.469Z" stroke="black" stroke-width="0.4"></path>
<path d="M645.475 266.906C646.321 258.776 645.524 266.911 646.263 258.763C647.01 250.623 646.313 258.769 646.96 250.617C647.593 242.466 647.01 250.623 647.543 242.461C648.077 234.299 647.593 242.466 648.027 234.293C648.461 226.135 648.077 234.299 648.412 226.129C648.747 217.96 648.468 226.128 648.697 217.955C648.926 209.782 648.747 217.96 648.876 209.777C649.006 201.608 648.926 209.782 648.956 201.602C648.987 193.422 648.999 201.601 648.93 193.424C648.854 185.241 648.987 193.422 648.805 185.249C648.63 177.069 648.854 185.241 648.574 177.071C648.3 168.895 650.248 119.917 648.243 168.897C646.246 217.883 645.967 226.037 644.587 275.038C643.199 324.046 644.636 275.043 645.475 266.906Z" stroke="black" stroke-width="0.4"></path>
<path d="M645.954 319.791C647.457 311.645 646.003 319.796 647.407 311.64C648.804 303.477 647.457 311.645 648.754 303.471C650.051 295.297 648.804 303.477 650.001 295.292C651.192 287.1 650.051 295.297 651.149 287.088C652.24 278.885 651.199 287.093 652.183 278.873C653.174 270.66 652.24 278.885 653.125 270.655C654.009 262.424 653.174 270.66 653.96 262.419C654.745 254.178 654.009 262.424 654.695 254.172C655.381 245.92 654.745 254.178 655.325 245.922C655.911 237.659 655.381 245.92 655.855 237.661C656.335 229.395 655.911 237.659 656.285 229.39C656.659 221.12 662.538 171.858 656.603 221.122C650.667 270.385 649.732 278.582 644.4 327.917C639.083 377.251 644.457 327.929 645.954 319.791Z" stroke="black" stroke-width="0.4"></path>
<path d="M646.437 356.113C648.385 347.959 646.486 356.118 648.336 347.953C650.192 339.782 648.385 347.959 650.135 339.769C651.884 331.58 650.192 339.782 651.834 331.56C653.477 323.353 651.884 331.58 653.434 323.341C654.976 315.109 653.483 323.346 654.927 315.103C656.37 306.846 654.976 315.109 656.313 306.834C657.656 298.567 656.37 306.846 657.606 298.561C658.843 290.276 657.656 298.567 658.786 290.264C659.923 281.968 658.836 290.269 659.866 281.956C660.897 273.643 659.923 281.968 660.847 273.637C661.771 265.306 660.897 273.643 661.714 265.308C662.539 256.966 671.134 207.491 662.489 256.961C653.844 306.431 652.457 314.672 644.43 364.24C636.397 413.816 644.481 364.26 646.437 356.113Z" stroke="black" stroke-width="0.4"></path>
<path d="M651.945 367.138C654.04 358.929 651.995 367.157 653.983 358.917C655.971 350.677 654.04 358.929 655.921 350.658C657.809 342.392 655.978 350.67 657.76 342.387C659.534 334.098 657.809 342.392 659.491 334.085C661.173 325.778 659.541 334.09 661.116 325.765C662.691 317.44 661.165 325.771 662.634 317.428C664.109 309.078 662.691 317.44 664.059 309.073C665.427 300.705 664.109 309.078 665.37 300.693C666.639 292.315 665.427 300.705 666.582 292.303C667.744 283.907 666.632 292.308 667.687 283.895C668.736 275.489 667.744 283.907 668.686 275.483C669.642 267.059 679.028 217.118 669.585 267.047C660.149 316.983 658.623 325.299 649.807 375.348C640.983 425.39 649.857 375.353 651.945 367.138Z" stroke="black" stroke-width="0.4"></path>
<path d="M664.294 349.924C666.165 341.561 664.345 349.944 666.115 341.541C667.886 333.153 666.165 341.561 667.836 333.148C669.5 324.728 667.886 333.153 669.45 324.722C671.014 316.291 669.5 324.728 670.957 316.279C672.421 307.824 671.007 316.285 672.364 307.811C673.715 299.345 672.421 307.824 673.665 299.34C674.909 290.857 673.715 299.345 674.852 290.844C675.99 282.343 674.909 290.857 675.94 282.338C676.978 273.826 675.99 282.343 676.921 273.814C677.852 265.285 676.971 273.819 677.795 265.287C678.613 256.747 677.852 265.285 678.563 256.742C679.281 248.191 687.323 197.419 679.225 248.193C671.127 298.967 669.832 307.417 662.36 358.283C654.895 409.155 662.417 358.295 664.294 349.924Z" stroke="black" stroke-width="0.4"></path>
<path d="M680.465 307.781C681.819 299.209 680.528 307.786 681.769 299.203C683.016 290.614 681.819 299.209 682.959 290.601C684.093 282.001 683.009 290.607 684.044 281.996C685.071 273.379 684.093 282.001 685.021 273.373C685.935 264.745 685.071 273.379 685.885 264.74C686.699 256.101 685.935 264.745 686.649 256.096C687.35 247.447 686.699 256.101 687.3 247.442C687.895 238.79 687.35 247.447 687.845 238.784C688.333 230.129 687.895 238.79 688.283 230.123C688.665 221.45 688.333 230.129 688.608 221.452C688.883 212.776 688.665 221.45 688.827 212.778C688.996 204.097 693.819 152.318 688.939 204.099C684.06 255.881 683.301 264.503 679.067 316.34C674.827 368.185 679.117 316.346 680.465 307.781Z" stroke="black" stroke-width="0.4"></path>
<path d="M695.116 250.265C695.75 241.513 695.173 250.264 695.7 241.508C696.22 232.745 695.75 241.513 696.17 232.739C696.584 223.973 696.22 232.745 696.527 223.975C696.834 215.205 696.584 223.973 696.785 215.2C696.972 206.427 696.834 215.205 696.922 206.422C697.01 197.653 696.979 206.42 696.96 197.647C696.935 188.868 697.01 197.653 696.878 188.87C696.747 180.101 696.935 188.868 696.69 180.103C696.453 171.331 696.747 180.101 696.396 171.333C696.053 162.557 696.446 171.324 695.996 162.559C695.532 153.794 696.045 162.55 695.476 153.796C694.906 145.043 695.385 92.436 694.85 145.045C694.329 197.653 694.297 206.406 694.433 259.013C694.563 311.627 694.483 259.018 695.116 250.265Z" stroke="black" stroke-width="0.4"></path>
<path d="M704.917 191.586C704.817 182.71 704.974 191.585 704.761 182.712C704.548 173.84 704.817 182.71 704.498 173.835C704.18 164.974 704.548 173.84 704.123 164.975C703.691 156.104 704.18 164.973 703.642 156.113C703.104 147.252 703.691 156.104 703.048 147.254C702.39 138.404 703.097 147.245 702.334 138.406C701.577 129.559 702.397 138.396 701.528 129.568C700.651 120.733 701.577 129.559 700.595 120.735C699.62 111.917 700.651 120.733 699.563 111.919C698.469 103.113 699.62 111.917 698.419 103.122C697.219 94.3258 698.469 103.113 697.155 94.335C695.849 85.55 691.898 32.5011 695.793 85.5661C699.695 138.624 700.401 147.451 704.96 200.464C709.519 253.478 705.017 200.462 704.917 191.586Z" stroke="black" stroke-width="0.4"></path>
<path d="M711.028 146.81C710.373 137.854 711.091 146.8 710.324 137.862C709.55 128.918 710.373 137.854 709.501 128.926C708.621 119.992 709.55 128.918 708.564 119.994C707.572 111.078 708.621 119.992 707.515 111.08C706.417 102.175 707.572 111.078 706.361 102.177C705.15 93.2893 706.417 102.175 705.093 93.2913C703.77 84.4219 705.15 93.2893 703.713 84.4238C702.284 75.5652 703.777 84.4146 702.228 75.5671C700.679 66.7338 702.284 75.5652 700.63 66.7426C698.976 57.92 700.686 66.7265 698.919 57.9219C697.153 49.1314 698.976 57.92 697.103 49.1402C695.231 40.3605 687.903 -12.9404 695.168 40.3697C702.44 93.6866 703.706 102.544 711.632 155.76C719.566 208.984 711.689 155.758 711.028 146.81Z" stroke="black" stroke-width="0.4"></path>
<path d="M717.398 127.53C716.501 118.498 717.455 127.528 716.445 118.5C715.435 109.485 716.501 118.498 715.378 109.487C714.262 100.483 715.435 109.485 714.206 100.485C712.977 91.4993 714.262 100.483 712.914 91.5086C711.566 82.5339 712.97 91.4925 711.516 82.5427C710.056 73.5861 711.573 82.5267 709.999 73.5881C708.433 64.6563 710.056 73.5861 708.376 64.6582C706.698 55.7445 708.433 64.6563 706.642 55.7606C704.857 46.8575 706.698 55.7444 704.794 46.8667C702.897 37.9958 704.85 46.8507 702.834 38.0051C700.825 29.1522 702.897 37.9959 700.769 29.1683C698.648 20.3476 689.863 -33.3419 698.592 20.3636C707.327 74.0619 708.836 82.9814 718.239 136.565C727.643 190.148 718.296 136.563 717.398 127.53Z" stroke="black" stroke-width="0.4"></path>
<path d="M726.485 139.119C725.732 129.975 726.541 139.117 725.676 129.977C724.81 120.851 725.732 129.975 724.754 120.853C723.775 111.732 724.81 120.851 723.719 111.734C722.621 102.623 723.775 111.732 722.565 102.639C721.361 93.5392 722.621 102.623 721.304 93.5411C719.981 84.4666 721.361 93.5392 719.932 84.4754C718.488 75.412 719.981 84.4666 718.439 75.4208C716.891 66.3823 718.488 75.4121 716.834 66.3843C715.173 57.3638 716.897 66.375 715.124 57.3725C713.35 48.37 715.173 57.3637 713.294 48.3861C711.408 39.4017 713.35 48.37 711.358 39.4104C709.36 30.4581 701.393 -23.9599 709.304 30.4742C717.215 84.8941 718.587 93.9458 727.174 148.272C735.761 202.598 727.237 148.262 726.485 139.119Z" stroke="black" stroke-width="0.4"></path>
<path d="M736.699 179.642C736.451 170.368 736.756 179.64 736.395 170.369C736.027 161.106 736.451 170.367 735.971 161.108C735.497 151.842 736.027 161.106 735.434 151.851C734.847 142.589 735.497 151.842 734.783 142.598C734.076 133.346 734.847 142.589 734.02 133.348C733.193 124.108 734.076 133.347 733.137 124.11C732.197 114.888 733.193 124.108 732.141 114.89C731.089 105.686 732.197 114.888 731.032 105.688C729.86 96.4807 731.082 105.679 729.804 96.4968C728.519 87.3078 729.86 96.4808 728.463 87.3097C727.066 78.1528 728.519 87.3078 727.009 78.1547C725.499 69.0017 720.499 13.6328 725.443 69.0178C730.38 124.396 731.255 133.599 736.883 188.911C742.511 244.223 736.94 188.909 736.699 179.642Z" stroke="black" stroke-width="0.4"></path>
<path d="M743.868 239.868C744.375 230.504 743.925 239.866 744.311 230.499C744.697 221.132 744.375 230.504 744.647 221.127C744.913 211.757 744.697 221.132 744.856 211.759C745.008 202.379 744.913 211.757 744.951 202.381C744.99 193.005 745.008 202.379 744.934 193.007C744.845 183.635 744.99 193.005 744.789 183.637C744.594 174.262 744.852 183.628 744.538 174.264C744.216 164.893 744.594 174.262 744.159 164.895C743.739 155.528 744.223 164.886 743.675 155.537C743.127 146.174 743.739 155.528 743.071 146.176C742.403 136.825 743.127 146.174 742.347 136.827C741.566 127.493 741.03 71.2985 741.51 127.495C741.989 183.691 742.126 193.04 743.305 249.219C744.492 305.405 743.369 249.224 743.868 239.868Z" stroke="black" stroke-width="0.4"></path>
<path d="M745.577 305.078C746.889 295.701 745.634 305.09 746.832 295.688C748.038 286.294 746.889 295.701 747.974 286.289C749.059 276.877 748.038 286.294 749.002 276.865C749.966 267.436 749.059 276.877 749.909 267.437C750.76 257.998 749.966 267.435 750.696 257.993C751.426 248.551 750.76 257.998 751.369 248.539C751.978 239.094 751.426 248.551 751.921 239.082C752.417 229.626 751.985 239.086 752.354 229.621C752.736 220.156 752.417 229.626 752.672 220.151C752.934 210.682 752.736 220.156 752.87 210.677C753.012 201.206 752.934 210.682 752.956 201.208C752.977 191.733 757.294 135.103 752.913 191.728C748.54 248.36 747.873 257.779 744.201 314.45C740.53 371.136 744.258 314.463 745.577 305.078Z" stroke="black" stroke-width="0.4"></path>
<path d="M744.171 359.117C746.163 349.745 744.235 359.122 746.106 349.733C747.977 340.343 746.163 349.745 747.92 340.331C749.677 330.917 747.977 340.343 749.613 330.913C751.255 321.474 749.677 330.918 751.192 321.47C752.714 312.014 751.256 321.474 752.657 312.002C754.065 302.537 752.714 312.014 754.008 302.524C755.288 293.035 754.065 302.537 755.224 293.03C756.398 283.523 755.288 293.035 756.334 283.518C757.387 274.008 756.398 283.523 757.33 273.996C758.262 264.469 757.387 274.008 758.198 264.464C759.01 254.92 758.262 264.469 758.946 254.915C759.637 245.368 767.989 188.593 759.58 245.37C751.165 302.141 749.826 311.59 742.122 368.463C734.417 425.337 742.179 368.476 744.171 359.117Z" stroke="black" stroke-width="0.4"></path>
<path d="M745.482 388.852C747.835 379.474 745.532 388.871 747.778 379.462C750.023 370.053 747.841 379.467 749.966 370.041C752.09 360.6 750.03 370.045 752.033 360.588C754.042 351.123 752.097 360.593 753.985 351.111C755.881 341.621 754.042 351.123 755.817 341.617C757.592 332.096 755.881 341.621 757.528 332.091C759.189 322.56 757.592 332.096 759.132 322.548C760.664 312.994 759.181 322.554 760.601 312.989C762.012 303.417 760.664 312.993 761.955 303.405C763.254 293.823 762.012 303.417 763.197 293.811C764.374 284.211 763.254 293.823 764.31 284.207C765.367 274.59 775.932 217.569 765.31 274.578C754.681 331.595 752.976 341.084 743.059 398.218C733.148 455.358 743.123 398.237 745.482 388.852Z" stroke="black" stroke-width="0.4"></path>
<path d="M754.142 387.182C756.483 377.684 754.199 387.194 756.426 377.672C758.646 368.158 756.483 377.684 758.582 368.139C760.688 358.6 758.646 368.158 760.631 358.587C762.616 349.017 760.688 358.6 762.552 348.998C764.423 339.404 762.616 349.017 764.359 339.399C766.102 329.78 764.423 339.404 766.045 329.768C767.666 320.133 766.102 329.78 767.609 320.12C769.117 310.46 767.673 320.125 769.053 310.455C770.44 300.778 769.117 310.46 770.377 300.774C771.643 291.08 770.44 300.778 771.579 291.075C772.724 281.363 771.643 291.079 772.66 281.359C773.685 271.63 784.08 213.985 773.628 271.632C763.162 329.28 761.482 338.875 751.743 396.653C741.996 454.425 751.8 396.665 754.142 387.182Z" stroke="black" stroke-width="0.4"></path>
<path d="M769.746 353.895C771.67 344.214 769.803 353.907 771.613 344.201C773.416 334.489 771.67 344.214 773.353 334.484C775.035 324.754 773.416 334.489 774.978 324.742C776.539 314.995 775.035 324.754 776.482 314.983C777.923 305.22 776.539 314.996 777.859 305.215C779.178 295.42 777.923 305.22 779.115 295.415C780.313 285.617 779.178 295.42 780.256 285.605C781.328 275.797 780.313 285.617 781.27 275.785C782.221 265.96 781.328 275.797 782.157 265.955C782.986 256.113 782.221 265.96 782.923 256.108C783.632 246.264 782.986 256.113 783.568 246.259C784.156 236.397 792.005 177.743 784.092 236.392C776.187 295.048 774.931 304.82 767.757 363.571C760.584 422.323 767.821 363.576 769.746 353.895Z" stroke="black" stroke-width="0.4"></path>
</svg>
