<svg id="visual" viewBox="0 0 900 600" width="900" height="600" xmlns="http://www.w3.org/2000/svg" xmlns:xlink="http://www.w3.org/1999/xlink" version="1.1"><path d="M0 381L21.5 390.7C43 400.3 86 419.7 128.8 435C171.7 450.3 214.3 461.7 257.2 471C300 480.3 343 487.7 385.8 487C428.7 486.3 471.3 477.7 514.2 473.8C557 470 600 471 642.8 476C685.7 481 728.3 490 771.2 485.7C814 481.3 857 463.7 878.5 454.8L900 446L900 601L878.5 601C857 601 814 601 771.2 601C728.3 601 685.7 601 642.8 601C600 601 557 601 514.2 601C471.3 601 428.7 601 385.8 601C343 601 300 601 257.2 601C214.3 601 171.7 601 128.8 601C86 601 43 601 21.5 601L0 601Z" fill="#121212" stroke-linecap="round" stroke-linejoin="miter"></path></svg>